<?xml version="1.0" encoding="utf-8"?>
<!-- Generator: Adobe Illustrator 24.0.1, SVG Export Plug-In . SVG Version: 6.00 Build 0)  -->
<svg version="1.1" id="Layer_1" xmlns="http://www.w3.org/2000/svg" xmlns:xlink="http://www.w3.org/1999/xlink" x="0px" y="0px"
	 viewBox="0 0 24 24" style="enable-background:new 0 0 24 24;" xml:space="preserve">
<style type="text/css">
	.st0{fill:#1A1A1A;}
	.st1{opacity:0.2;fill:#FFFFFF;enable-background:new    ;}
	.st2{fill:#0099D8;}
	.st3{fill:#FFFFFF;}
	.st4{opacity:0.1;enable-background:new    ;}
	.st5{opacity:0.3;enable-background:new    ;}
	.st6{fill:#FDB515;}
	.st7{fill:url(#SVGID_1_);}
	.st8{fill:url(#SVGID_2_);}
	.st9{fill:url(#SVGID_3_);}
</style>
<g>
	<path class="st0" d="M18.2,16.9c0.2-0.4,0.3-0.9,0.3-1.7c0-2.6-1.2-4.2-2.2-5.4c-0.6-0.7-1.1-1.3-1.1-1.9l0-0.2
		c0-1.1,0-3.5-1.2-4.7c-0.5-0.5-1.2-0.8-2-0.8c-1.7,0-2.8,0.8-2.8,4.9c0,1.1-0.5,2-1,3C8,10.5,7.7,11,7.6,11.4
		c-0.4,0.9-1.2,3.2-1.2,4.2c0,0.1,0,0.1,0,0.2l2.9,5.5c0.1,0.1,0.2,0.2,0.3,0.2c0,0,0,0,0,0c0.1,0,0.2-0.1,0.3-0.1
		c0.2-0.2,1.4-0.5,2.1-0.5h2.8c0.1,0,0.2,0,0.3-0.1l3.3-3.3c0.2-0.2,0.2-0.4,0-0.6C18.3,17,18.3,16.9,18.2,16.9z"/>
	<path class="st1" d="M8.2,10.3c0.5-1,1-1.9,1-3c0-4,1.1-4.9,2.8-4.9c0.8,0,1.5,0.3,2,0.8c1.1,1.1,1.2,3,1.2,4.2
		c0-1.2-0.1-3.3-1.2-4.4c-0.5-0.5-1.2-0.8-2-0.8c-1.7,0-2.8,0.8-2.8,4.9c0,1.1-0.5,2-1,3C8,10.5,7.7,11,7.6,11.4
		c-0.4,0.9-1.2,3.2-1.2,4.2c0,0,0,0,0,0.1c0.1-1.1,0.9-3.2,1.2-4.1C7.7,11.2,8,10.7,8.2,10.3z"/>
	<path class="st2" d="M18.4,17.2c0.1,0.1,0.1,0.1,0.1,0.2c0-0.1,0-0.3-0.1-0.4c0,0-0.1,0-0.1-0.1c0,0.1,0,0.1-0.1,0.2
		C18.3,17.1,18.3,17.2,18.4,17.2z"/>
	<path class="st1" d="M15.3,8.1c0,0.6,0.5,1.2,1.1,1.9c1,1.2,2.2,2.7,2.2,5.3c0,0,0-0.1,0-0.1c0-2.6-1.2-4.2-2.2-5.4
		c-0.6-0.7-1.1-1.3-1.1-1.9v0L15.3,8.1z"/>
	<path class="st2" d="M15.3,7.9C15.3,7.9,15.3,7.9,15.3,7.9c0-0.1,0-0.3,0-0.5c0,0.1,0,0.2,0,0.3L15.3,7.9z"/>
	<g>
		<path class="st3" d="M15.4,15.9c0-2-0.3-4.2-1.8-7.4c-0.8,0.5-2.2,0.9-2.4,0.9c-0.3,0-1-0.2-1.5-0.7c-0.2,0.6-0.5,1.2-0.8,1.7
			c-0.2,0.4-0.4,0.8-0.6,1.3c-0.5,1.2-1.1,2.8-1.2,3.6c0.3,0.2,0.6,0.7,0.8,1.3c0.3,0.6,0.6,1.2,1,1.5c0.7,0.5,1.1,1.2,1.2,1.9
			c0.3,0,0.6,0.1,1,0.1c1,0,2.3-0.2,3.3-0.8C14.6,18.2,14.8,16.5,15.4,15.9z"/>
	</g>
	<path class="st2" d="M18.5,15.4c0,0.7-0.1,1.2-0.3,1.5c0,0,0,0,0.1,0C18.4,16.6,18.5,16.1,18.5,15.4C18.5,15.4,18.5,15.4,18.5,15.4
		z"/>
	<path class="st4" d="M10.2,20.1c0.3,0,0.6,0.1,1,0.1c1,0,2.3-0.2,3.3-0.8v-0.2c-1,0.6-2.3,0.8-3.3,0.8c-0.4,0-0.8,0-1.1-0.1"/>
	<path class="st5" d="M15,20.6c-0.1,0.1-0.2,0.1-0.3,0.1H12c-0.7,0-1.9,0.3-2.1,0.5c-0.1,0.1-0.2,0.1-0.3,0.1c0,0,0,0,0,0
		c-0.1,0-0.2-0.1-0.3-0.2l-2.9-5.5c0,0,0-0.1,0-0.1c0,0,0,0.1,0,0.2c0,0.1,0,0.1,0,0.2l2.9,5.5c0.1,0.1,0.2,0.2,0.3,0.2c0,0,0,0,0,0
		c0.1,0,0.2-0.1,0.3-0.1c0.2-0.2,1.4-0.5,2.1-0.5h2.8c0.1,0,0.2,0,0.3-0.1l3.3-3.3c0.1-0.1,0.1-0.3,0.1-0.4c0,0.1,0,0.1-0.1,0.2
		L15,20.6z"/>
	<path class="st6" d="M19.3,17.7c-0.2-0.1-0.3-0.2-0.5-0.3c-0.1-0.1,0-0.4,0-0.6c0-0.3,0.1-0.7-0.2-1c-0.1-0.1-0.2-0.2-0.5-0.2
		c-0.2,0-0.4,0.2-0.4,0.4c0,0,0,0,0,0h-1.6c0-0.2-0.2-0.4-0.4-0.4c-1.2,0-1.2,4.4-1.2,4.5c0,0.2-0.1,0.8,0.3,1.2
		c0.2,0.2,0.5,0.4,0.9,0.4c1.1,0,1.6-0.5,2.1-1.1c0.1-0.1,0.2-0.2,0.3-0.3c0.2-0.2,0.6-0.4,1-0.5c0.6-0.2,1.2-0.4,1.2-1
		C20.1,18.3,19.6,18,19.3,17.7z"/>
	<path class="st6" d="M9,18.2c-0.4-0.3-0.7-0.9-1-1.5c-0.4-0.8-0.7-1.4-1.3-1.4c-0.8,0-0.9,0.7-1,1.1c0,0.1-0.1,0.3-0.1,0.3
		c-0.1,0-0.3,0.1-0.4,0.1c-0.5,0.1-1.3,0.3-1.3,1c0,0.2,0,0.4,0.1,0.6c0.1,0.3,0.1,0.7-0.1,1.3c0,0,0,0.1,0,0.1c0,1,1.5,1.1,2.4,1.2
		c0.2,0,0.3,0,0.4,0c0.1,0,0.4,0.1,0.6,0.3c0.5,0.2,1.2,0.6,1.9,0.6c0.5,0,0.8-0.3,1-0.8C10.4,20.2,10.1,18.9,9,18.2z"/>
	<path class="st1" d="M5.1,16.9c0.2,0,0.4-0.1,0.5-0.1c0,0,0-0.2,0.1-0.3c0.1-0.4,0.3-1.1,1.1-1.1c0.6,0,0.9,0.7,1.3,1.4
		c0.3,0.6,0.6,1.2,1,1.5c0.4,0.3,0.7,0.6,0.9,1c-0.2-0.4-0.5-0.9-1-1.2c-0.4-0.3-0.7-0.9-1-1.5c-0.4-0.8-0.7-1.4-1.3-1.4
		c-0.8,0-0.9,0.7-1,1.1c0,0.1-0.1,0.3-0.1,0.3c-0.1,0-0.3,0.1-0.4,0.1c-0.4,0.1-1.1,0.2-1.3,0.7C4.2,17.1,4.8,17,5.1,16.9z"/>
	<path class="st0" d="M18.1,14.8c-0.1,0-0.1,0-0.2,0.1l-2.7-4.4c-0.3-0.8-0.7-1.7-1.2-2.7c-0.1-0.2-0.3-0.3-0.5-0.2
		c-0.2,0.1-0.3,0.3-0.2,0.5c1.8,3.6,2,5.8,2,7.9c0,0.1,0,0.8,0.4,1.3c0.2,0.2,0.5,0.3,0.8,0.3l0.1,0c0,0,0.1,0,0.1,0
		c0.4,0,0.9,0,1.2-0.4c0.4-0.4,0.5-1,0.5-2.1C18.5,15,18.3,14.8,18.1,14.8z"/>
	<path class="st5" d="M18,17.1c-0.3,0.3-0.8,0.4-1.2,0.4c0,0-0.1,0-0.1,0l-0.1,0c-0.3,0-0.6-0.1-0.8-0.3c-0.3-0.3-0.4-0.9-0.4-1.1
		c0,0,0,0,0,0c0,0.1,0,0.8,0.4,1.3c0.2,0.2,0.5,0.3,0.8,0.3l0.1,0c0,0,0.1,0,0.1,0c0.4,0,0.9,0,1.2-0.4c0.4-0.4,0.5-1,0.5-2.1
		c0,0,0,0,0,0C18.5,16.2,18.3,16.8,18,17.1z"/>
	<path class="st3" d="M12.8,4.7c-0.5,0-0.8,0.5-0.8,1.2c0,0.7,0.3,1.2,0.8,1.2s0.8-0.5,0.8-1.2C13.6,5.2,13.3,4.7,12.8,4.7z"/>
	<ellipse cx="12.8" cy="6.2" rx="0.4" ry="0.7"/>
	<path class="st3" d="M10.4,4.7c-0.5,0-0.8,0.5-0.8,1.2c0,0.7,0.3,1.2,0.8,1.2s0.8-0.5,0.8-1.2C11.2,5.2,10.8,4.7,10.4,4.7z"/>
	
		<linearGradient id="SVGID_1_" gradientUnits="userSpaceOnUse" x1="10.6862" y1="18.2171" x2="16.1969" y2="12.7072" gradientTransform="matrix(1 0 0 -1 0 26)">
		<stop  offset="0" style="stop-color:#000000;stop-opacity:0.1"/>
		<stop  offset="1" style="stop-color:#000000;stop-opacity:0"/>
	</linearGradient>
	<path class="st7" d="M13.5,8.5c-0.8,0.5-2.1,0.9-2.3,0.9c-0.3,0-1-0.2-1.5-0.7l5.5,5.5C15.1,12.7,14.6,10.9,13.5,8.5z"/>
	<ellipse cx="10.4" cy="6.2" rx="0.4" ry="0.7"/>
	<path class="st6" d="M11.7,6.3C11.6,6.3,11.6,6.3,11.7,6.3c-1,0-2.5,0.8-2.5,1.6c0,0.8,1.5,1.6,2,1.6c0.2,0,2.8-0.9,2.8-1.6
		C14,6.9,12.2,6.4,11.7,6.3z"/>
	<path class="st6" d="M11.7,6.3C11.6,6.3,11.6,6.3,11.7,6.3c-1,0-2.5,0.8-2.5,1.6c0,0.8,1.5,1.6,2,1.6c0.2,0,2.8-0.9,2.8-1.6
		C14,6.9,12.2,6.4,11.7,6.3z"/>
	<path class="st4" d="M18.9,19.7c-0.4,0.1-0.8,0.3-1,0.5c-0.1,0.1-0.2,0.2-0.3,0.3c-0.5,0.5-1,1.1-2.1,1.1c-0.4,0-0.7-0.1-0.9-0.4
		c-0.2-0.3-0.3-0.6-0.3-0.9c0,0.3,0,0.7,0.3,1.1c0.2,0.2,0.5,0.4,0.9,0.4c1.1,0,1.6-0.5,2.1-1.1c0.1-0.1,0.2-0.2,0.3-0.3
		c0.2-0.2,0.6-0.4,1-0.5c0.6-0.2,1.2-0.4,1.2-1c0,0,0-0.1,0-0.1C20,19.3,19.5,19.5,18.9,19.7z"/>
	<path class="st4" d="M10.1,20.7c-0.2,0.5-0.5,0.8-1,0.8c-0.6,0-1.3-0.3-1.9-0.6c-0.3-0.1-0.5-0.2-0.6-0.3c-0.1,0-0.2,0-0.4,0
		c-0.9-0.1-2.3-0.2-2.4-1.1c0,0,0,0,0,0c0,0,0,0.1,0,0.1c0,1,1.5,1.1,2.4,1.2c0.2,0,0.3,0,0.4,0c0.1,0,0.4,0.1,0.6,0.3
		c0.5,0.2,1.2,0.6,1.9,0.6c0.5,0,0.8-0.3,1-0.8c0.1-0.2,0.1-0.4,0.1-0.7C10.2,20.4,10.2,20.6,10.1,20.7z"/>
	<path class="st4" d="M11.2,9.4c-0.5,0-1.8-0.7-2-1.4c0,0,0,0,0,0c0,0.8,1.5,1.6,2,1.6c0.2,0,2.8-0.9,2.8-1.6c0,0,0,0,0,0
		C13.6,8.6,11.4,9.4,11.2,9.4z"/>
	
		<linearGradient id="SVGID_2_" gradientUnits="userSpaceOnUse" x1="16.7627" y1="9.7585" x2="19.9294" y2="6.5918" gradientTransform="matrix(1 0 0 -1 0 26)">
		<stop  offset="0" style="stop-color:#000000;stop-opacity:0.1"/>
		<stop  offset="1" style="stop-color:#000000;stop-opacity:0"/>
	</linearGradient>
	<path class="st8" d="M19.3,17.7c-0.2-0.1-0.3-0.2-0.5-0.3c-0.1-0.1,0-0.4,0-0.6c0-0.3,0.1-0.7-0.2-1c0,0-0.1-0.1-0.1-0.1
		c-0.1,0.7-0.2,1.2-0.5,1.5c-0.3,0.3-0.8,0.4-1.2,0.4c0,0-0.1,0-0.1,0l-0.1,0c-0.3,0-0.6-0.1-0.8-0.3l2.8,2.8
		c0.2-0.1,0.3-0.1,0.5-0.2c0.6-0.2,1.2-0.4,1.2-1C20.1,18.3,19.6,18,19.3,17.7z"/>
	
		<linearGradient id="SVGID_3_" gradientUnits="userSpaceOnUse" x1="6.5114" y1="15.5765" x2="21.0076" y2="8.8172" gradientTransform="matrix(1 0 0 -1 0 26)">
		<stop  offset="0" style="stop-color:#FFFFFF;stop-opacity:0.2"/>
		<stop  offset="1" style="stop-color:#FFFFFF;stop-opacity:0"/>
	</linearGradient>
	<path class="st9" d="M19.3,17.7c-0.2-0.1-0.3-0.2-0.5-0.3c-0.1-0.1,0-0.4,0-0.6c0-0.3,0.1-0.7-0.2-1c0,0-0.1-0.1-0.1-0.1
		c0-0.2,0-0.3,0-0.5c0-2.6-1.2-4.2-2.2-5.4c-0.6-0.7-1.1-1.3-1.1-1.9l0-0.2c0-1.1,0-3.5-1.2-4.7c-0.5-0.5-1.2-0.8-2-0.8
		c-1.7,0-2.8,0.8-2.8,4.9c0,1.1-0.5,2-1,3C8,10.5,7.7,11,7.6,11.4c-0.3,0.8-1.1,2.8-1.2,3.9c-0.4,0.2-0.6,0.7-0.6,1
		c0,0.1-0.1,0.3-0.1,0.3c-0.1,0-0.3,0.1-0.4,0.1c-0.5,0.1-1.3,0.3-1.3,1c0,0.2,0,0.4,0.1,0.6c0.1,0.3,0.1,0.7-0.1,1.3
		c0,0,0,0.1,0,0.1c0,1,1.5,1.1,2.4,1.2c0.2,0,0.3,0,0.4,0c0.1,0,0.4,0.1,0.6,0.3c0.5,0.2,1.2,0.6,1.9,0.6c0.3,0,0.5-0.1,0.7-0.3
		c0,0,0,0,0,0c0.2-0.2,1.4-0.5,2.1-0.5h2.5c0,0.2,0.1,0.3,0.2,0.4c0.2,0.2,0.5,0.4,0.9,0.4c1.1,0,1.6-0.5,2.1-1.1
		c0.1-0.1,0.2-0.2,0.3-0.3c0.2-0.2,0.6-0.4,1-0.5c0.6-0.2,1.2-0.4,1.2-1C20.1,18.3,19.6,18,19.3,17.7z"/>
</g>
</svg>
