<?xml version="1.0" encoding="utf-8"?>
<!-- Generator: Adobe Illustrator 24.0.1, SVG Export Plug-In . SVG Version: 6.00 Build 0)  -->
<svg version="1.1" id="Layer_1" xmlns="http://www.w3.org/2000/svg" xmlns:xlink="http://www.w3.org/1999/xlink" x="0px" y="0px"
	 viewBox="0 0 64 64" style="enable-background:new 0 0 64 64;" xml:space="preserve">
<path d="M50.6,12H12.9c-2.1,0-3.8,1.7-3.8,3.8v32.2c0,2.1,1.7,3.8,3.8,3.8h37.7c2.1,0,3.8-1.7,3.8-3.8V15.9
	C54.5,13.8,52.8,12,50.6,12z M53,48.1c0,1.3-1.1,2.3-2.3,2.3H12.9c-1.3,0-2.3-1.1-2.3-2.3V15.9c0-1.3,1.1-2.3,2.3-2.3h37.7
	c1.3,0,2.3,1.1,2.3,2.3V48.1z"/>
<path d="M14.7,16.2h34.1c0.9,0,1.6,0.7,1.6,1.6V42c0,0.9-0.7,1.6-1.6,1.6H14.7c-0.9,0-1.6-0.7-1.6-1.6V17.8
	C13.1,16.9,13.8,16.2,14.7,16.2z"/>
<path d="M36.2,46.3h-8.3c-0.4,0-0.8,0.3-0.8,0.8s0.3,0.8,0.8,0.8h8.3c0.4,0,0.8-0.3,0.8-0.8S36.6,46.3,36.2,46.3z"/>
</svg>
