<svg id="Layer_1" viewBox="0 0 64 64" xmlns="http://www.w3.org/2000/svg" data-name="Layer 1"><path d="m56.88 5.41h-50.21c-2.83 0-5.12 2.3-5.12 5.12v42.94c0 2.82 2.29 5.12 5.12 5.12h50.21c2.83 0 5.12-2.3 5.12-5.12v-42.94c0-2.82-2.29-5.12-5.12-5.12zm3.12 48.06c0 1.72-1.4 3.12-3.12 3.12h-50.21c-1.72 0-3.12-1.4-3.12-3.12v-42.94c0-1.72 1.4-3.12 3.12-3.12h50.21c1.72 0 3.12 1.4 3.12 3.12z"/><rect height="36.57" rx="2.16" width="49.71" x="6.92" y="10.95"/><path d="m37.603 51.077h-11.033c-.552 0-1 .448-1 1s.448 1 1 1h11.033c.552 0 1-.448 1-1s-.448-1-1-1z"/></svg>