<?xml version="1.0" encoding="utf-8"?>
<!-- Generator: Adobe Illustrator 24.0.1, SVG Export Plug-In . SVG Version: 6.00 Build 0)  -->
<svg version="1.1" id="图层_1" xmlns="http://www.w3.org/2000/svg" xmlns:xlink="http://www.w3.org/1999/xlink" x="0px" y="0px"
	 viewBox="0 0 200 200" style="enable-background:new 0 0 200 200;" xml:space="preserve">
<path d="M178.2,80.8c-2.4-9.9-6.7-19.2-12.6-27.5l12.2-12L200,19.7l-28.9,11.2l-19.2,7.4C117.8,9.6,67,14,38.3,48
	c-12.2,14.5-19,32.9-19,52c0,4.5,0.4,8.9,1.1,13.4L7,125.3l14.8-6.1c2.4,9.9,6.7,19.2,12.6,27.5l-12.2,12L0,180.3l28.9-11.2
	l19.2-7.4C82.2,190.4,133,186,161.7,152c12.2-14.5,19-32.9,19-52c0-4.5-0.4-8.9-1.1-13.4l13.5-12L178.2,80.8z M89.1,101.9
	L89.1,101.9l28.1-29.4l0,0l-77.6,32.3L100,51.1v14.2l0,0l39.2-15.1l17.9-7l16.3-6.4l-11.6,11.3L110.9,98l0,0l-28.1,29.4l0,0
	L160.4,95L100,148.9v-14.2l0,0L60.3,150l-17.4,6.7l-16.3,6.4l11.6-11.3L89.1,101.9z"/>
</svg>
