<svg xmlns="http://www.w3.org/2000/svg" xmlns:xlink="http://www.w3.org/1999/xlink" viewBox="0 0 500 500"><defs><style>.cls-1{fill:none;}.cls-2{fill:#fff;}.cls-3{fill:#edf0fc;}.cls-4{fill:#eb725f;}.cls-5{fill:#f9ab43;}.cls-6,.cls-9{opacity:0.1;}.cls-7,.cls-9{fill:#0046a0;}.cls-8{fill:#6e7fdd;}.cls-10{fill:#c2cef2;}.cls-11{fill:#b0c1ea;}.cls-12{fill:#d2ddf9;}.cls-13{clip-path:url(#clip-path);}.cls-14{clip-path:url(#clip-path-2);}.cls-15{clip-path:url(#clip-path-3);}.cls-16{fill:#f2f2f2;}.cls-17{fill:#d2ddf7;}.cls-18{fill:#ffcf74;}.cls-19{clip-path:url(#clip-path-4);}.cls-20{opacity:0.3;}.cls-21{clip-path:url(#clip-path-5);}.cls-22{fill:#cad2f9;}.cls-23{fill:#e2e6ff;}</style><clipPath id="clip-path"><circle class="cls-1" cx="192.75" cy="152.58" r="11.35"/></clipPath><clipPath id="clip-path-2"><circle class="cls-1" cx="296.03" cy="229.78" r="11.35"/></clipPath><clipPath id="clip-path-3"><circle class="cls-1" cx="192.75" cy="309.4" r="11.35"/></clipPath><clipPath id="clip-path-4"><polygon class="cls-1" points="368.92 419.7 259.53 419.7 306.81 303.11 321.64 303.11 368.92 419.7"/></clipPath><clipPath id="clip-path-5"><polygon class="cls-1" points="181.91 422.9 118.02 422.9 145.64 354.8 154.29 354.8 181.91 422.9"/></clipPath></defs><title>destroy</title><g id="BACKGROUND"><rect class="cls-2" width="500" height="500"/></g><g id="OBJECTS"><ellipse class="cls-3" cx="246.17" cy="424.15" rx="188.52" ry="19.04"/><path class="cls-4" d="M153.51,361.37c-6.27,0-3.28,20.4-3.28,20.4s-9.33-22-16.5-22.82-.87,18.42-.87,18.42-18.64-20.88-23.46-19.65,4,12.87,4,12.87S82.5,355,79.76,360.94s29.12,19.42,29.12,19.42-14.59.8-12.41,5.27,30.16,5.18,30.16,5.18-18.72,7.62-13.47,12.58,28.07-2.18,28.07-2.18-17.46,10.88-13.43,15.7,41-14.76,41-14.76S159.79,361.32,153.51,361.37Z"/><path class="cls-5" d="M155.5,377.74l1.84,7.12c.59,2.38,1.27,4.74,1.91,7.11l1.69,6.16-5.79-2.77-9.46-4.44c-1.1-2.91-2.21-5.82-3.39-8.7l-1.82-4.4c-.64-1.45-1.25-2.92-1.93-4.36.43,1.53.94,3,1.4,4.56l1.51,4.51c.87,2.58,1.8,5.14,2.74,7.69l-11.4-5.35L126.56,382c-1.23-2.06-2.46-4.12-3.76-6.14l-2-3.11c-.71-1-1.38-2-2.12-3,.51,1.13,1.09,2.22,1.63,3.33l1.74,3.27c.87,1.64,1.79,3.26,2.72,4.86l-14.42-6.57c-7.5-3.38-15-6.73-22.58-10,7.36,3.68,14.78,7.24,22.21,10.78l14.49,6.8c-1.9.35-3.79.71-5.67,1.13-2.42.52-4.84,1.07-7.23,1.73,2.47-.19,4.93-.52,7.38-.86s4.88-.74,7.31-1.16l6.07,2.85,11.52,5.27c-2.59,1-5.19,1.93-7.75,3-3,1.18-5.92,2.38-8.82,3.69,3.07-.86,6.1-1.85,9.12-2.85s6-2.06,8.94-3.12l9.44,4.31,5.87,2.62-5.82,2.74c-2.22,1.06-4.46,2.08-6.67,3.18-4.43,2.15-8.86,4.32-13.23,6.6,4.57-1.85,9.09-3.82,13.6-5.8,2.27-1,4.5-2,6.74-3l6.73-3.05,0,0,4,1.8c3.78,1.64,7.53,3.32,11.32,4.93-3.68-1.85-7.39-3.63-11.08-5.45l-4-1.9,0,0-2-7.07c-.69-2.35-1.34-4.72-2.07-7.06l-2.14-7c-.76-2.34-1.48-4.68-2.27-7C154.32,373,154.93,375.35,155.5,377.74Z"/><g class="cls-6"><path class="cls-7" d="M110,369c-8.09-3.83-28.08-12.7-30.26-8-.84,1.83,1.62,4.38,5.43,7C92.35,366.68,100.92,367,110,369Z"/><path class="cls-7" d="M132.79,377.14c14.65,7.47,25.6,17.78,30.44,27.84,3.35-1.67,5.53-2.83,5.53-2.83s-9-40.83-15.25-40.78-3.28,20.4-3.28,20.4-9.33-22-16.5-22.82C127,358.21,132.11,375,132.79,377.14Z"/><path class="cls-7" d="M112.67,369.57a95,95,0,0,1,14.62,5c1.8.78,3.55,1.61,5.25,2.47-2.43-2.69-18.69-20.44-23.14-19.3C105.45,358.72,110.65,366.71,112.67,369.57Z"/></g><path class="cls-4" d="M375.85,363.89c.64-6.24-19.92-5.49-19.92-5.49s22.91-6.87,24.48-13.91-18.21-2.88-18.21-2.88,22.79-16.25,22.1-21.17S371.07,323,371.07,323s18.83-29,13.27-32.39-22.49,26.82-22.49,26.82.8-14.59-3.88-12.91S349.53,334,349.53,334s-5.53-19.44-11-14.77-.91,28.14-.91,28.14-8.91-18.54-14.14-15.06,10.19,42.33,10.19,42.33S375.21,370.14,375.85,363.89Z"/><path class="cls-5" d="M359.36,364.08l-7.28,1c-2.43.34-4.85.75-7.27,1.13l-6.32,1,3.39-5.45,5.45-8.92c3-.78,6-1.56,9-2.42l4.57-1.32c1.52-.48,3-.93,4.55-1.44-1.57.26-3.12.59-4.69.89l-4.65,1c-2.66.58-5.3,1.23-7.94,1.88l6.57-10.75,3.51-5.89c2.18-1,4.36-2,6.51-3.06l3.31-1.67c1.09-.59,2.19-1.15,3.26-1.77-1.18.39-2.33.84-3.49,1.26L364.42,331c-1.73.68-3.43,1.42-5.13,2.17l8.11-13.61c4.18-7.09,8.33-14.19,12.38-21.36-4.45,6.92-8.8,13.91-13.14,20.9l-8.34,13.66c-.14-1.92-.3-3.84-.5-5.76-.26-2.46-.54-4.93-.94-7.38-.07,2.49,0,5,.05,7.44s.21,4.92.36,7.39l-3.5,5.72L347.28,351c-.68-2.68-1.35-5.37-2.1-8-.85-3.07-1.72-6.13-2.71-9.17.53,3.15,1.18,6.27,1.85,9.39s1.38,6.15,2.12,9.22l-5.32,8.92-3.25,5.54-2.08-6.08c-.81-2.33-1.58-4.67-2.43-7-1.66-4.64-3.33-9.27-5.12-13.87,1.34,4.75,2.8,9.45,4.28,14.15.72,2.36,1.51,4.69,2.27,7l2.3,7v0L334.88,372c-2,3.57-4.12,7.12-6.14,10.71,2.24-3.45,4.42-6.94,6.63-10.42l2.32-3.73h0l7.25-1.25c2.41-.43,4.84-.82,7.24-1.29l7.23-1.36c2.41-.5,4.82-1,7.21-1.49C364.22,363.42,361.8,363.77,359.36,364.08Z"/><g class="cls-6"><path class="cls-7" d="M373.07,319.83c4.69-7.63,15.69-26.53,11.27-29.2-1.73-1-4.53,1.13-7.59,4.62C377.26,302.51,376,311,373.07,319.83Z"/><path class="cls-7" d="M362.43,341.56c-9,13.75-20.47,23.51-31,27.22,1.3,3.52,2.21,5.81,2.21,5.81s41.57-4.45,42.21-10.7-19.92-5.49-19.92-5.49,22.91-6.87,24.48-13.91C381.89,337.89,364.63,341.13,362.43,341.56Z"/><path class="cls-7" d="M372.16,322.39a94,94,0,0,1-6.54,14q-1.47,2.55-3,4.95c2.93-2.12,22.35-16.34,21.71-20.89C383.73,316.41,375.23,320.7,372.16,322.39Z"/></g><path class="cls-8" d="M98.49,301a68.9,68.9,0,0,0,4,7.56,117.2,117.2,0,0,0,12.43,17.27,106.9,106.9,0,0,0,21.71,19.23,93.42,93.42,0,0,0,31.83,13.45c14,3,28.59,2.66,42.65,0,2-.39,4.07-.84,6.1-1.32.62-.15.3-1.11-.32-1-14.37,3.44-29.36,4.58-44,2.13a92,92,0,0,1-32.69-12.18,103.91,103.91,0,0,1-22.57-18.76,115.88,115.88,0,0,1-13.31-17.7c-1.77-2.89-3.34-6-4.82-8.87l-.06-.13c-.26-.59-1.21-.28-1,.31Z"/><path class="cls-8" d="M103.69,310.57a20.78,20.78,0,0,1-5.68-5.3,28.91,28.91,0,0,1-5.42-13,20.61,20.61,0,0,1,.27-7.77,20.82,20.82,0,0,1,5.69,5.3,28.21,28.21,0,0,1,3.51,6.19,28.86,28.86,0,0,1,1.89,6.87A20.74,20.74,0,0,1,103.69,310.57Z"/><path class="cls-7" d="M93.79,286.7c.86,1.74,1.65,3.5,2.44,5.27s1.52,3.56,2.28,5.33,1.46,3.58,2.16,5.38,1.38,3.62,2,5.45c-.85-1.74-1.65-3.5-2.43-5.27s-1.52-3.55-2.29-5.33-1.46-3.58-2.15-5.38S94.42,288.54,93.79,286.7Z"/><path class="cls-9" d="M98.55,289.75a20.82,20.82,0,0,0-5.69-5.3c-.09.37-.16.73-.23,1.09a23.3,23.3,0,0,1,3.74,3.92,28.28,28.28,0,0,1,3.51,6.2,28.73,28.73,0,0,1,1.89,6.87,21.59,21.59,0,0,1,0,6.66,17.43,17.43,0,0,0,2,1.38,20.74,20.74,0,0,0,.26-7.76,28.86,28.86,0,0,0-1.89-6.87A28.21,28.21,0,0,0,98.55,289.75Z"/><path class="cls-8" d="M108.87,318.06a20.73,20.73,0,0,1-2.79-7.25,28.39,28.39,0,0,1-.47-7.1,28,28,0,0,1,1.29-7,20.35,20.35,0,0,1,3.63-6.87,20.57,20.57,0,0,1,2.8,7.25,27.92,27.92,0,0,1,.46,7.1,28.93,28.93,0,0,1-1.29,7A20.8,20.8,0,0,1,108.87,318.06Z"/><path class="cls-7" d="M110.39,292.26c0,1.94,0,3.87-.11,5.81s-.18,3.86-.27,5.79-.25,3.86-.41,5.78-.33,3.85-.57,5.78c0-1.94,0-3.87.11-5.81s.18-3.86.27-5.79.24-3.85.41-5.78S110.15,294.19,110.39,292.26Z"/><path class="cls-9" d="M113.33,297.08a20.57,20.57,0,0,0-2.8-7.25c-.24.29-.47.59-.68.88a23.39,23.39,0,0,1,1.65,5.16,28.77,28.77,0,0,1-.84,14.11,21.82,21.82,0,0,1-2.94,6,18.17,18.17,0,0,0,1.15,2.1,20.8,20.8,0,0,0,3.63-6.87,28.93,28.93,0,0,0,1.29-7A27.92,27.92,0,0,0,113.33,297.08Z"/><path class="cls-8" d="M108.7,317.58a20.81,20.81,0,0,1-7.63,1.47,28.69,28.69,0,0,1-13.75-3.28A20.63,20.63,0,0,1,81.2,311a20.4,20.4,0,0,1,7.62-1.49,28.17,28.17,0,0,1,7.08.8,28.67,28.67,0,0,1,6.67,2.5A21,21,0,0,1,108.7,317.58Z"/><path class="cls-7" d="M83.57,311.56c1.91.33,3.8.72,5.69,1.12s3.77.86,5.66,1.29,3.75.92,5.62,1.41,3.73,1,5.58,1.58c-1.91-.33-3.8-.72-5.69-1.12s-3.77-.86-5.65-1.29-3.76-.92-5.63-1.42S85.42,312.13,83.57,311.56Z"/><path class="cls-9" d="M88.82,309.5A20.4,20.4,0,0,0,81.2,311c.24.29.49.56.75.83a22.67,22.67,0,0,1,5.36-.72,28.22,28.22,0,0,1,7.08.79,28.7,28.7,0,0,1,6.67,2.51,21.82,21.82,0,0,1,5.37,3.94,18.9,18.9,0,0,0,2.27-.76,21,21,0,0,0-6.13-4.78,28.67,28.67,0,0,0-6.67-2.5A28.17,28.17,0,0,0,88.82,309.5Z"/><path class="cls-8" d="M120.06,330.48a21,21,0,0,1-3.9-6.72,28.88,28.88,0,0,1-1.58-6.95,28.38,28.38,0,0,1,.17-7.12,20.66,20.66,0,0,1,2.51-7.35,20.49,20.49,0,0,1,3.91,6.71,28.49,28.49,0,0,1,1.57,6.95,28.84,28.84,0,0,1-.18,7.12A20.94,20.94,0,0,1,120.06,330.48Z"/><path class="cls-7" d="M117.5,304.76c.32,1.92.57,3.83.81,5.75s.42,3.84.64,5.76.36,3.85.51,5.78.27,3.86.34,5.79c-.32-1.91-.57-3.83-.81-5.74s-.42-3.85-.64-5.77-.36-3.85-.5-5.77S117.57,306.7,117.5,304.76Z"/><path class="cls-9" d="M121.17,309.05a20.49,20.49,0,0,0-3.91-6.71c-.19.33-.37.65-.53,1a23.57,23.57,0,0,1,2.44,4.83,28.28,28.28,0,0,1,1.57,7,28.86,28.86,0,0,1-.18,7.12,21.64,21.64,0,0,1-2,6.36,20.67,20.67,0,0,0,1.47,1.9,20.94,20.94,0,0,0,2.5-7.36,28.84,28.84,0,0,0,.18-7.12A28.49,28.49,0,0,0,121.17,309.05Z"/><path class="cls-8" d="M119.81,330a20.69,20.69,0,0,1-7.3,2.65,28.38,28.38,0,0,1-7.11.34,27.94,27.94,0,0,1-7-1.42,20.5,20.5,0,0,1-6.8-3.76,20.75,20.75,0,0,1,7.3-2.67A28.9,28.9,0,0,1,113,326.28,20.75,20.75,0,0,1,119.81,330Z"/><path class="cls-7" d="M94.05,328c1.94,0,3.87.12,5.8.22s3.85.25,5.78.38,3.86.32,5.78.51,3.84.41,5.76.68c-1.94,0-3.87-.11-5.8-.21s-3.85-.26-5.78-.38-3.86-.32-5.78-.52S96,328.3,94.05,328Z"/><path class="cls-9" d="M98.92,325.17a20.75,20.75,0,0,0-7.3,2.67c.29.25.58.48.87.7A22.77,22.77,0,0,1,97.67,327a28,28,0,0,1,7.12-.33,28.42,28.42,0,0,1,7,1.43,21.68,21.68,0,0,1,5.92,3.05,17.28,17.28,0,0,0,2.12-1.11,20.75,20.75,0,0,0-6.8-3.75,28.9,28.9,0,0,0-14.09-1.11Z"/><path class="cls-8" d="M133.45,342.11a20.92,20.92,0,0,1-4.92-6,29.08,29.08,0,0,1-2.67-6.61,28.09,28.09,0,0,1-1-7.06,20.51,20.51,0,0,1,1.3-7.66,20.63,20.63,0,0,1,4.93,6,28.71,28.71,0,0,1,3.61,13.67A20.9,20.9,0,0,1,133.45,342.11Z"/><path class="cls-7" d="M126.83,317.13c.61,1.84,1.16,3.69,1.71,5.54s1,3.73,1.55,5.59,1,3.74,1.42,5.62.89,3.77,1.26,5.67c-.62-1.84-1.17-3.69-1.71-5.55s-1-3.72-1.55-5.58-1-3.75-1.42-5.63S127.2,319,126.83,317.13Z"/><path class="cls-9" d="M131.13,320.78a20.63,20.63,0,0,0-4.93-6c-.14.36-.26.71-.37,1.05a22.9,22.9,0,0,1,3.18,4.39,28.71,28.71,0,0,1,3.61,13.67,21.59,21.59,0,0,1-.92,6.59,17.32,17.32,0,0,0,1.75,1.64,20.9,20.9,0,0,0,1.29-7.66,28.71,28.71,0,0,0-3.61-13.67Z"/><path class="cls-8" d="M133.13,341.7a21,21,0,0,1-6.78,3.79,28.5,28.5,0,0,1-7,1.46,27.53,27.53,0,0,1-7.12-.29A20.36,20.36,0,0,1,105,344a20.43,20.43,0,0,1,6.78-3.79,28.4,28.4,0,0,1,7-1.46,28.93,28.93,0,0,1,7.12.3A20.92,20.92,0,0,1,133.13,341.7Z"/><path class="cls-7" d="M107.38,343.83c1.91-.28,3.83-.5,5.76-.71s3.84-.36,5.77-.54,3.85-.3,5.78-.41,3.86-.21,5.8-.25c-1.92.29-3.84.5-5.76.71s-3.85.36-5.77.55-3.86.3-5.79.41S109.31,343.8,107.38,343.83Z"/><path class="cls-9" d="M111.73,340.24A20.43,20.43,0,0,0,105,344c.32.2.65.38,1,.55a22.65,22.65,0,0,1,4.87-2.35,28,28,0,0,1,7-1.46,28.93,28.93,0,0,1,7.12.3,21.7,21.7,0,0,1,6.33,2.07,18.47,18.47,0,0,0,1.92-1.44,20.92,20.92,0,0,0-7.31-2.62,28.93,28.93,0,0,0-7.12-.3A28.4,28.4,0,0,0,111.73,340.24Z"/><path class="cls-8" d="M150.15,351.75a20.79,20.79,0,0,1-6-5,28.94,28.94,0,0,1-3.88-6,28.08,28.08,0,0,1-2.3-6.74,20.67,20.67,0,0,1-.19-7.77,20.55,20.55,0,0,1,6,4.95A28.76,28.76,0,0,1,150,344,20.82,20.82,0,0,1,150.15,351.75Z"/><path class="cls-7" d="M138.87,328.5c.95,1.69,1.85,3.4,2.74,5.12s1.73,3.46,2.59,5.18,1.67,3.49,2.47,5.25,1.6,3.52,2.33,5.32c-1-1.69-1.86-3.4-2.74-5.12s-1.73-3.45-2.6-5.18-1.67-3.49-2.47-5.25S139.6,330.3,138.87,328.5Z"/><path class="cls-9" d="M143.79,331.26a20.55,20.55,0,0,0-6-4.95c-.06.38-.12.74-.16,1.1a23,23,0,0,1,4,3.7,27.85,27.85,0,0,1,3.87,6,28.58,28.58,0,0,1,2.29,6.75,21.63,21.63,0,0,1,.36,6.65,20,20,0,0,0,2,1.27A20.82,20.82,0,0,0,150,344a28.76,28.76,0,0,0-6.17-12.73Z"/><path class="cls-8" d="M149.76,351.41a20.68,20.68,0,0,1-5.93,5,28.26,28.26,0,0,1-6.56,2.77,27.88,27.88,0,0,1-7,1.08,20.43,20.43,0,0,1-7.68-1.18,20.37,20.37,0,0,1,5.93-5,28.26,28.26,0,0,1,6.56-2.77,28.88,28.88,0,0,1,7.05-1.07A21,21,0,0,1,149.76,351.41Z"/><path class="cls-7" d="M124.9,358.44c1.82-.65,3.67-1.23,5.51-1.8s3.71-1.09,5.56-1.64,3.73-1,5.6-1.51,3.75-.95,5.64-1.36c-1.82.65-3.67,1.23-5.51,1.8s-3.71,1.1-5.56,1.65-3.73,1-5.6,1.51S126.79,358,124.9,358.44Z"/><path class="cls-9" d="M128.48,354.08a20.37,20.37,0,0,0-5.93,5c.36.14.71.25,1.06.36a22.79,22.79,0,0,1,4.33-3.25,28.26,28.26,0,0,1,6.56-2.77,29,29,0,0,1,7.05-1.07,21.89,21.89,0,0,1,6.61.82,18.63,18.63,0,0,0,1.6-1.78,21,21,0,0,0-7.67-1.17,28.88,28.88,0,0,0-7.05,1.07A28.26,28.26,0,0,0,128.48,354.08Z"/><path class="cls-8" d="M165.91,357.64a20.68,20.68,0,0,1-6.33-4.5,28.8,28.8,0,0,1-7.12-12.21,20.69,20.69,0,0,1-.77-7.73,20.43,20.43,0,0,1,6.34,4.49,27.5,27.5,0,0,1,4.31,5.67,27.85,27.85,0,0,1,2.79,6.55A20.69,20.69,0,0,1,165.91,357.64Z"/><path class="cls-7" d="M152.92,335.3c1.08,1.61,2.1,3.25,3.11,4.9s2,3.32,3,5,1.92,3.35,2.85,5,1.86,3.4,2.72,5.13c-1.08-1.61-2.1-3.25-3.12-4.89s-2-3.32-3-5-1.93-3.35-2.86-5.05S153.78,337,152.92,335.3Z"/><path class="cls-9" d="M158,337.69a20.43,20.43,0,0,0-6.34-4.49c0,.38-.06.75-.08,1.11a22.75,22.75,0,0,1,4.22,3.38,28.18,28.18,0,0,1,4.32,5.67,28.51,28.51,0,0,1,2.78,6.56,21.44,21.44,0,0,1,.86,6.6,19.22,19.22,0,0,0,2.12,1.12,20.69,20.69,0,0,0-.78-7.73,27.85,27.85,0,0,0-2.79-6.55A27.5,27.5,0,0,0,158,337.69Z"/><path class="cls-8" d="M165.5,357.33a20.85,20.85,0,0,1-5.54,5.45,28.63,28.63,0,0,1-6.34,3.26,28.17,28.17,0,0,1-6.94,1.6,20.47,20.47,0,0,1-7.74-.6,20.57,20.57,0,0,1,5.53-5.46,28.13,28.13,0,0,1,6.34-3.24,28.63,28.63,0,0,1,6.94-1.6A20.92,20.92,0,0,1,165.5,357.33Z"/><path class="cls-7" d="M141.23,366.2c1.77-.78,3.56-1.5,5.36-2.2s3.62-1.37,5.42-2.06,3.64-1.31,5.47-1.93,3.67-1.22,5.53-1.77c-1.77.78-3.57,1.5-5.37,2.21s-3.61,1.37-5.42,2.06-3.64,1.3-5.47,1.92S143.08,365.66,141.23,366.2Z"/><path class="cls-9" d="M144.47,361.58a20.57,20.57,0,0,0-5.53,5.46l1.08.27a23.19,23.19,0,0,1,4.07-3.56,28.74,28.74,0,0,1,13.28-4.84,21.67,21.67,0,0,1,6.66.32,18.32,18.32,0,0,0,1.47-1.9,20.92,20.92,0,0,0-7.75-.59,28.63,28.63,0,0,0-6.94,1.6A28.13,28.13,0,0,0,144.47,361.58Z"/><path class="cls-8" d="M186.07,360.24a20.6,20.6,0,0,1-7.14-3,28.85,28.85,0,0,1-5.44-4.61,28.45,28.45,0,0,1-4.13-5.8,20.55,20.55,0,0,1-2.4-7.39,20.38,20.38,0,0,1,7.15,3,28.12,28.12,0,0,1,5.43,4.61,28.76,28.76,0,0,1,4.12,5.81A20.76,20.76,0,0,1,186.07,360.24Z"/><path class="cls-7" d="M168.6,341.21c1.4,1.34,2.75,2.72,4.09,4.11s2.65,2.82,4,4.23,2.59,2.86,3.87,4.31,2.53,2.92,3.75,4.43c-1.4-1.34-2.75-2.72-4.1-4.11s-2.64-2.82-4-4.23-2.6-2.86-3.87-4.32S169.82,342.71,168.6,341.21Z"/><path class="cls-9" d="M174.11,342.44a20.38,20.38,0,0,0-7.15-3c0,.38.09.75.16,1.1a23.1,23.1,0,0,1,4.85,2.41,28.36,28.36,0,0,1,5.42,4.61,28.8,28.8,0,0,1,4.13,5.81,22,22,0,0,1,2.25,6.27,17.16,17.16,0,0,0,2.3.63,20.76,20.76,0,0,0-2.41-7.38,28.76,28.76,0,0,0-4.12-5.81A28.12,28.12,0,0,0,174.11,342.44Z"/><path class="cls-8" d="M185.6,360a21,21,0,0,1-4.24,6.5,28.82,28.82,0,0,1-5.49,4.54,28.42,28.42,0,0,1-6.44,3.05,20.62,20.62,0,0,1-7.69,1.07,20.65,20.65,0,0,1,4.23-6.52,28,28,0,0,1,5.5-4.52,28.42,28.42,0,0,1,6.44-3.05A20.68,20.68,0,0,1,185.6,360Z"/><path class="cls-7" d="M163.79,373.89c1.57-1.14,3.17-2.23,4.77-3.3s3.24-2.11,4.86-3.17,3.27-2.06,4.93-3.05,3.32-2,5-2.92c-1.56,1.15-3.16,2.23-4.77,3.31s-3.24,2.11-4.86,3.17-3.27,2.05-4.93,3.05S165.49,373,163.79,373.89Z"/><path class="cls-9" d="M166,368.68a20.65,20.65,0,0,0-4.23,6.52l1.11,0a22.93,22.93,0,0,1,3.22-4.35,28.16,28.16,0,0,1,5.5-4.53,28.82,28.82,0,0,1,6.44-3,21.56,21.56,0,0,1,6.56-1.11,16.58,16.58,0,0,0,1-2.16,20.68,20.68,0,0,0-7.69,1.07,28.42,28.42,0,0,0-6.44,3.05A28,28,0,0,0,166,368.68Z"/><path class="cls-8" d="M416.53,365.92a70.27,70.27,0,0,1-6.4,5.67,117.21,117.21,0,0,1-17.72,11.77,107,107,0,0,1-27.1,10.33A93.31,93.31,0,0,1,330.78,395c-14.2-2.13-27.69-7.6-39.89-15.08q-2.65-1.63-5.24-3.39c-.54-.36.1-1.14.63-.78,12.23,8.28,25.86,14.64,40.4,17.51a92,92,0,0,0,34.89.14,104.15,104.15,0,0,0,27.74-9.58A117.22,117.22,0,0,0,408,372c2.67-2.08,5.24-4.44,7.64-6.6l.1-.1c.45-.46,1.23.17.78.63Z"/><path class="cls-8" d="M408.29,373a20.82,20.82,0,0,0,7.18-3,28.83,28.83,0,0,0,5.48-4.55,28.48,28.48,0,0,0,4.2-5.76,20.49,20.49,0,0,0,2.48-7.36,20.54,20.54,0,0,0-7.18,2.95,28.15,28.15,0,0,0-5.48,4.56,28.82,28.82,0,0,0-4.19,5.76A20.78,20.78,0,0,0,408.29,373Z"/><path class="cls-7" d="M426,354.2c-1.42,1.32-2.78,2.69-4.14,4.07s-2.68,2.79-4,4.18-2.63,2.83-3.91,4.28-2.57,2.89-3.8,4.38c1.41-1.32,2.78-2.69,4.13-4.07s2.68-2.78,4-4.18,2.63-2.83,3.92-4.27S424.73,355.69,426,354.2Z"/><path class="cls-9" d="M420.45,355.37a20.62,20.62,0,0,1,7.18-2.95c0,.38-.1.75-.17,1.1a22.9,22.9,0,0,0-4.87,2.35,28.51,28.51,0,0,0-5.48,4.56,28.82,28.82,0,0,0-4.19,5.76,21.71,21.71,0,0,0-2.32,6.24,15.92,15.92,0,0,1-2.31.61,20.78,20.78,0,0,1,2.49-7.35,28.82,28.82,0,0,1,4.19-5.76A28.15,28.15,0,0,1,420.45,355.37Z"/><path class="cls-8" d="M400.79,378.21a20.61,20.61,0,0,0,5.17-5.79,28.79,28.79,0,0,0,4.22-13.49,20.64,20.64,0,0,0-1-7.71A20.7,20.7,0,0,0,404,357a28.69,28.69,0,0,0-4.19,13.5A20.78,20.78,0,0,0,400.79,378.21Z"/><path class="cls-7" d="M408.48,353.55c-.69,1.8-1.32,3.63-2,5.46s-1.19,3.68-1.79,5.52-1.13,3.69-1.66,5.55-1.05,3.72-1.5,5.61c.69-1.81,1.32-3.64,1.95-5.47s1.19-3.68,1.79-5.51,1.13-3.7,1.66-5.56S408,355.43,408.48,353.55Z"/><path class="cls-9" d="M404,357a20.7,20.7,0,0,1,5.19-5.79c.12.36.23.71.32,1.07a23.08,23.08,0,0,0-3.36,4.24,27.71,27.71,0,0,0-2.94,6.48,28.71,28.71,0,0,0-1.26,7,21.71,21.71,0,0,0,.64,6.63,18.94,18.94,0,0,1-1.82,1.55,20.78,20.78,0,0,1-1-7.7A28.69,28.69,0,0,1,404,357Z"/><path class="cls-8" d="M401.13,377.83a20.73,20.73,0,0,0,6.61,4.07,28.23,28.23,0,0,0,6.9,1.76,27.81,27.81,0,0,0,7.12,0,20.63,20.63,0,0,0,7.42-2.31,20.45,20.45,0,0,0-6.61-4.09,28.2,28.2,0,0,0-6.9-1.75,28.82,28.82,0,0,0-7.13,0A20.78,20.78,0,0,0,401.13,377.83Z"/><path class="cls-7" d="M426.76,381.06c-1.9-.36-3.81-.66-5.72-.95s-3.83-.53-5.74-.8-3.84-.46-5.77-.66-3.84-.38-5.78-.49c1.9.36,3.81.66,5.73.95s3.83.53,5.74.8,3.84.46,5.76.66S424.83,380.94,426.76,381.06Z"/><path class="cls-9" d="M422.57,377.28a20.45,20.45,0,0,1,6.61,4.09q-.49.27-1,.51a22.65,22.65,0,0,0-4.77-2.57,27.76,27.76,0,0,0-6.9-1.75,28.35,28.35,0,0,0-7.13,0,21.85,21.85,0,0,0-6.41,1.79,19.15,19.15,0,0,1-1.85-1.51,20.78,20.78,0,0,1,7.41-2.31,28.82,28.82,0,0,1,7.13,0A28.2,28.2,0,0,1,422.57,377.28Z"/><path class="cls-8" d="M385.94,385.88a20.84,20.84,0,0,0,6-4.9,28.79,28.79,0,0,0,3.93-6,28.17,28.17,0,0,0,2.35-6.72,20.34,20.34,0,0,0,.25-7.76,20.44,20.44,0,0,0-6,4.9,28.28,28.28,0,0,0-3.92,5.94,29.15,29.15,0,0,0-2.34,6.73A20.75,20.75,0,0,0,385.94,385.88Z"/><path class="cls-7" d="M397.41,362.73c-1,1.68-1.88,3.38-2.78,5.09s-1.76,3.45-2.64,5.17-1.69,3.47-2.51,5.22-1.62,3.51-2.36,5.3c1-1.67,1.88-3.38,2.78-5.09s1.75-3.44,2.63-5.17,1.7-3.47,2.51-5.22S396.66,364.52,397.41,362.73Z"/><path class="cls-9" d="M392.46,365.45a20.44,20.44,0,0,1,6-4.9c.07.37.12.74.16,1.1a22.35,22.35,0,0,0-4,3.66,27.71,27.71,0,0,0-3.92,5.95,28.48,28.48,0,0,0-2.35,6.72,21.58,21.58,0,0,0-.41,6.65,17.58,17.58,0,0,1-2,1.25,20.75,20.75,0,0,1,.26-7.76,29.15,29.15,0,0,1,2.34-6.73A28.28,28.28,0,0,1,392.46,365.45Z"/><path class="cls-8" d="M386.33,385.55a20.7,20.7,0,0,0,5.89,5.06,28.84,28.84,0,0,0,13.57,4,20.74,20.74,0,0,0,7.69-1.12,20.42,20.42,0,0,0-5.88-5.07,27.94,27.94,0,0,0-6.55-2.82,28.76,28.76,0,0,0-7-1.13A21,21,0,0,0,386.33,385.55Z"/><path class="cls-7" d="M411.14,392.78c-1.82-.66-3.66-1.26-5.5-1.85s-3.7-1.12-5.55-1.69-3.71-1.06-5.58-1.55-3.74-1-5.63-1.4c1.82.66,3.65,1.26,5.5,1.85s3.7,1.12,5.54,1.68,3.72,1.06,5.59,1.56S409.25,392.36,411.14,392.78Z"/><path class="cls-9" d="M407.6,388.39a20.42,20.42,0,0,1,5.88,5.07c-.35.13-.71.24-1.06.34a22.81,22.81,0,0,0-4.3-3.28,28.65,28.65,0,0,0-13.58-3.94,21.42,21.42,0,0,0-6.61.76,18.78,18.78,0,0,1-1.6-1.79,21,21,0,0,1,7.69-1.11,28.76,28.76,0,0,1,7,1.13A27.94,27.94,0,0,1,407.6,388.39Z"/><path class="cls-8" d="M369.31,392a20.63,20.63,0,0,0,6.72-3.89,28.44,28.44,0,0,0,4.83-5.24,27.76,27.76,0,0,0,3.39-6.26,20.61,20.61,0,0,0,1.49-7.63,20.58,20.58,0,0,0-6.73,3.89,27.73,27.73,0,0,0-4.82,5.24,28.45,28.45,0,0,0-3.39,6.27A21,21,0,0,0,369.31,392Z"/><path class="cls-7" d="M384.32,371c-1.22,1.5-2.39,3-3.56,4.58s-2.28,3.12-3.42,4.68-2.23,3.16-3.31,4.76-2.16,3.21-3.18,4.86c1.22-1.5,2.39-3,3.56-4.59s2.28-3.12,3.42-4.68,2.23-3.16,3.31-4.76S383.3,372.65,384.32,371Z"/><path class="cls-9" d="M379,372.91a20.58,20.58,0,0,1,6.73-3.89c0,.38,0,.76,0,1.12a22.84,22.84,0,0,0-4.52,3,28.74,28.74,0,0,0-4.82,5.24,29.07,29.07,0,0,0-3.38,6.27,21.57,21.57,0,0,0-1.46,6.5,17.76,17.76,0,0,1-2.22.91,21,21,0,0,1,1.49-7.62,28.45,28.45,0,0,1,3.39-6.27A27.73,27.73,0,0,1,379,372.91Z"/><path class="cls-8" d="M369.75,391.78a21,21,0,0,0,5,5.93,28.56,28.56,0,0,0,6,3.83,27.53,27.53,0,0,0,6.76,2.24,20.34,20.34,0,0,0,7.77.12,20.59,20.59,0,0,0-5-5.94,28.83,28.83,0,0,0-12.77-6A20.74,20.74,0,0,0,369.75,391.78Z"/><path class="cls-7" d="M393.09,402.86c-1.69-.94-3.41-1.83-5.13-2.7s-3.48-1.7-5.21-2.55-3.5-1.64-5.27-2.42-3.54-1.56-5.34-2.28c1.7.94,3.42,1.83,5.14,2.7s3.47,1.7,5.21,2.55,3.5,1.64,5.27,2.42S391.3,402.14,393.09,402.86Z"/><path class="cls-9" d="M390.29,398a20.59,20.59,0,0,1,5,5.94l-1.11.18a22.56,22.56,0,0,0-3.72-3.93,28.12,28.12,0,0,0-6-3.82,28.61,28.61,0,0,0-6.77-2.23,21.4,21.4,0,0,0-6.65-.3,18.91,18.91,0,0,1-1.29-2,20.74,20.74,0,0,1,7.77.13,28.83,28.83,0,0,1,12.77,6Z"/><path class="cls-8" d="M350.28,395.17a20.88,20.88,0,0,0,7.34-2.53,28.82,28.82,0,0,0,5.74-4.22,27.72,27.72,0,0,0,4.53-5.49,20.49,20.49,0,0,0,2.92-7.21,20.73,20.73,0,0,0-7.35,2.52,28.13,28.13,0,0,0-5.73,4.23,28.8,28.8,0,0,0-4.53,5.5A20.7,20.7,0,0,0,350.28,395.17Z"/><path class="cls-7" d="M369,377.4c-1.49,1.24-2.93,2.53-4.37,3.82s-2.84,2.62-4.26,3.93-2.79,2.68-4.16,4-2.73,2.74-4.05,4.16c1.49-1.24,2.93-2.53,4.37-3.82s2.84-2.63,4.26-3.94,2.79-2.67,4.16-4S367.72,378.82,369,377.4Z"/><path class="cls-9" d="M363.46,378.24a20.73,20.73,0,0,1,7.35-2.52c-.07.38-.15.74-.24,1.1a22.88,22.88,0,0,0-5,2.05,28.82,28.82,0,0,0-10.26,9.73,21.61,21.61,0,0,0-2.68,6.1,20.35,20.35,0,0,1-2.35.47,20.7,20.7,0,0,1,2.92-7.2,28.8,28.8,0,0,1,4.53-5.5A28.13,28.13,0,0,1,363.46,378.24Z"/><path class="cls-8" d="M350.76,395a20.92,20.92,0,0,0,3.78,6.79,28.82,28.82,0,0,0,5.16,4.91,27.91,27.91,0,0,0,6.21,3.49,20.35,20.35,0,0,0,7.6,1.61,20.52,20.52,0,0,0-3.77-6.79,28.71,28.71,0,0,0-11.38-8.39A20.64,20.64,0,0,0,350.76,395Z"/><path class="cls-7" d="M371.55,410.34c-1.48-1.25-3-2.44-4.53-3.63s-3.08-2.33-4.62-3.5-3.12-2.28-4.71-3.39-3.17-2.21-4.8-3.26c1.48,1.25,3,2.45,4.53,3.64s3.08,2.33,4.62,3.5,3.12,2.27,4.71,3.38S369.92,409.29,371.55,410.34Z"/><path class="cls-9" d="M369.74,405a20.52,20.52,0,0,1,3.77,6.79c-.38,0-.75,0-1.12,0a23,23,0,0,0-2.9-4.57,28.15,28.15,0,0,0-5.17-4.9,28.55,28.55,0,0,0-6.21-3.49,21.62,21.62,0,0,0-6.47-1.57,17.25,17.25,0,0,1-.88-2.23,20.64,20.64,0,0,1,7.6,1.62A28.71,28.71,0,0,1,369.74,405Z"/><path class="cls-8" d="M333.46,395.12a21.06,21.06,0,0,0,7.51-2,29,29,0,0,0,6-3.78,28.31,28.31,0,0,0,4.93-5.14,20.62,20.62,0,0,0,3.45-7,20.54,20.54,0,0,0-7.52,2,28.32,28.32,0,0,0-6,3.78,29,29,0,0,0-4.92,5.15A20.72,20.72,0,0,0,333.46,395.12Z"/><path class="cls-7" d="M353.5,378.81c-1.58,1.12-3.12,2.29-4.65,3.48s-3,2.4-4.54,3.6-3,2.46-4.45,3.71-2.93,2.53-4.35,3.85c1.58-1.13,3.11-2.3,4.64-3.48s3-2.41,4.54-3.61,3-2.46,4.45-3.72S352.08,380.12,353.5,378.81Z"/><path class="cls-9" d="M347.87,379.23a20.54,20.54,0,0,1,7.52-2c-.1.36-.21.72-.32,1.07a22.85,22.85,0,0,0-5.15,1.67,28.25,28.25,0,0,0-6,3.78,28.7,28.7,0,0,0-4.93,5.15,22.05,22.05,0,0,0-3.13,5.88,17.42,17.42,0,0,1-2.37.3,20.72,20.72,0,0,1,3.45-7,29,29,0,0,1,4.92-5.15A28.32,28.32,0,0,1,347.87,379.23Z"/><path class="cls-8" d="M334,395a20.85,20.85,0,0,0,3.26,7,28.86,28.86,0,0,0,10.71,9.23,20.56,20.56,0,0,0,7.46,2.17,20.68,20.68,0,0,0-3.26-7.05,27.74,27.74,0,0,0-4.78-5.28,28.39,28.39,0,0,0-5.94-3.94A20.77,20.77,0,0,0,334,395Z"/><path class="cls-7" d="M353.53,411.84c-1.38-1.35-2.81-2.66-4.24-4s-2.9-2.56-4.35-3.84-2.94-2.5-4.44-3.73-3-2.44-4.54-3.6c1.38,1.35,2.81,2.66,4.24,4s2.9,2.55,4.35,3.83,2.94,2.51,4.43,3.73S352,410.67,353.53,411.84Z"/><path class="cls-9" d="M352.12,406.38a20.68,20.68,0,0,1,3.26,7.05q-.57,0-1.11-.12a22.88,22.88,0,0,0-2.56-4.78,28,28,0,0,0-4.78-5.27,28.39,28.39,0,0,0-5.94-3.94,21.39,21.39,0,0,0-6.33-2.05A17,17,0,0,1,334,395a20.77,20.77,0,0,1,7.45,2.18,28.39,28.39,0,0,1,5.94,3.94A27.74,27.74,0,0,1,352.12,406.38Z"/><path class="cls-8" d="M313.67,390.44a20.91,20.91,0,0,0,7.76-.32,29,29,0,0,0,6.71-2.4,28.28,28.28,0,0,0,5.91-4,20.66,20.66,0,0,0,4.86-6.07,20.69,20.69,0,0,0-7.76.31,28.64,28.64,0,0,0-6.71,2.4,29.18,29.18,0,0,0-5.91,4A20.91,20.91,0,0,0,313.67,390.44Z"/><path class="cls-7" d="M336.73,378.79c-1.78.76-3.53,1.58-5.28,2.41s-3.47,1.7-5.2,2.55-3.44,1.76-5.15,2.67-3.4,1.84-5.07,2.82c1.78-.76,3.54-1.57,5.28-2.4s3.47-1.7,5.21-2.55,3.44-1.76,5.14-2.68S335.07,379.77,336.73,378.79Z"/><path class="cls-9" d="M331.15,378a20.69,20.69,0,0,1,7.76-.31c-.17.34-.35.66-.54,1a22.8,22.8,0,0,0-5.38.53,28.83,28.83,0,0,0-12.62,6.39,21.67,21.67,0,0,0-4.32,5.07,18.32,18.32,0,0,1-2.38-.22,20.91,20.91,0,0,1,4.86-6.06,29.18,29.18,0,0,1,5.91-4A28.64,28.64,0,0,1,331.15,378Z"/><path class="cls-8" d="M314.18,390.41a20.89,20.89,0,0,0,1.68,7.58,28.4,28.4,0,0,0,3.54,6.19,28.11,28.11,0,0,0,4.94,5.12,20.62,20.62,0,0,0,6.82,3.72,20.5,20.5,0,0,0-1.66-7.59,28.31,28.31,0,0,0-3.55-6.18,28.84,28.84,0,0,0-4.95-5.12A20.62,20.62,0,0,0,314.18,390.41Z"/><path class="cls-7" d="M329.7,411.07c-1.06-1.62-2.17-3.2-3.3-4.78s-2.28-3.11-3.42-4.67-2.34-3.08-3.54-4.6-2.41-3-3.67-4.5c1.06,1.63,2.18,3.21,3.3,4.78s2.28,3.12,3.43,4.68,2.33,3.08,3.53,4.59S328.44,409.6,329.7,411.07Z"/><path class="cls-9" d="M329.5,405.43a20.5,20.5,0,0,1,1.66,7.59q-.54-.16-1.05-.36a22.68,22.68,0,0,0-1.48-5.21,28.1,28.1,0,0,0-3.54-6.18,28.9,28.9,0,0,0-5-5.12,21.76,21.76,0,0,0-5.75-3.36,19.91,19.91,0,0,1-.2-2.38,20.62,20.62,0,0,1,6.82,3.72,28.84,28.84,0,0,1,4.95,5.12A28.31,28.31,0,0,1,329.5,405.43Z"/><rect class="cls-8" x="150.23" y="109.62" width="188.06" height="310.08" rx="14.18"/><path class="cls-10" d="M281.6,120.94c-1.59,5.58-17.69,10-37.34,10s-35.76-4.38-37.34-10H164.41V388.18H324.1V120.94Z"/><path class="cls-11" d="M303.43,168.76h-119a3.35,3.35,0,0,0-3.34,3.35v42.06l13.33-7.26h109a3.36,3.36,0,0,0,3.35-3.35V172.11A3.36,3.36,0,0,0,303.43,168.76Z"/><rect class="cls-12" x="191.88" y="176.68" width="104.15" height="1.11"/><rect class="cls-12" x="191.88" y="187.83" width="104.15" height="1.11"/><rect class="cls-12" x="191.88" y="198.98" width="74.01" height="1.11"/><circle class="cls-11" cx="192.75" cy="152.58" r="11.35"/><g class="cls-13"><circle class="cls-12" cx="192.75" cy="150.8" r="3.1"/><path class="cls-12" d="M192.75,155.06a6.3,6.3,0,1,0,6.3,6.3A6.3,6.3,0,0,0,192.75,155.06Z"/></g><path class="cls-11" d="M184.48,246.8h119a3.36,3.36,0,0,1,3.35,3.35v42.06L293.44,285h-109a3.35,3.35,0,0,1-3.34-3.34V250.15A3.35,3.35,0,0,1,184.48,246.8Z"/><rect class="cls-12" x="191.88" y="254.73" width="104.15" height="1.11"/><rect class="cls-12" x="191.88" y="265.87" width="104.15" height="1.11"/><rect class="cls-12" x="222.02" y="277.02" width="74.01" height="1.11"/><circle class="cls-11" cx="296.03" cy="229.78" r="11.35"/><g class="cls-14"><path class="cls-12" d="M296,231.11a3.1,3.1,0,1,0-3.1-3.1A3.1,3.1,0,0,0,296,231.11Z"/><path class="cls-12" d="M296,232.27a6.3,6.3,0,1,0,6.3,6.29A6.3,6.3,0,0,0,296,232.27Z"/></g><path class="cls-11" d="M303.43,327.07h-119a3.35,3.35,0,0,0-3.34,3.35v42.06l13.33-7.26h109a3.35,3.35,0,0,0,3.35-3.34V330.42A3.36,3.36,0,0,0,303.43,327.07Z"/><rect class="cls-12" x="191.88" y="335" width="104.15" height="1.11"/><rect class="cls-12" x="191.88" y="346.15" width="104.15" height="1.11"/><rect class="cls-12" x="191.88" y="357.3" width="74.01" height="1.11"/><circle class="cls-11" cx="192.75" cy="309.4" r="11.35"/><g class="cls-15"><path class="cls-12" d="M192.75,310.73a3.11,3.11,0,1,0-3.1-3.11A3.11,3.11,0,0,0,192.75,310.73Z"/><path class="cls-12" d="M192.75,311.88a6.3,6.3,0,1,0,6.3,6.3A6.3,6.3,0,0,0,192.75,311.88Z"/></g><polygon class="cls-8" points="295.29 229.2 280.26 214.18 244.26 250.18 208.26 214.18 193.23 229.2 229.23 265.2 193.23 301.2 208.26 316.23 244.26 280.23 280.26 316.23 295.29 301.2 259.29 265.2 295.29 229.2"/><rect class="cls-16" x="284.68" y="91.59" width="132.6" height="99.93"/><rect class="cls-17" x="292.44" y="97.88" width="117.09" height="15.96"/><polygon class="cls-16" points="405.71 101.47 403.94 99.7 399.7 103.94 395.45 99.7 393.68 101.47 397.93 105.71 393.68 109.95 395.45 111.73 399.7 107.48 403.94 111.73 405.71 109.95 401.47 105.71 405.71 101.47"/><path class="cls-8" d="M350.59,173.2h-.06a78.15,78.15,0,0,1-24.94-4,70.79,70.79,0,0,1-18.77-9.52,50.76,50.76,0,0,1-6.29-5.24L299.11,153l1.42-1.38a50.65,50.65,0,0,1,6.32-5.25,66.51,66.51,0,0,1,6.22-4,73.54,73.54,0,0,1,12.53-5.56,78.32,78.32,0,0,1,24.93-4h.06a77,77,0,0,1,24.89,4A72.19,72.19,0,0,1,388,142.39a68.34,68.34,0,0,1,6.28,4,52.54,52.54,0,0,1,6.3,5.27L402,153l-1.41,1.38a51.75,51.75,0,0,1-6.33,5.29,69.42,69.42,0,0,1-6.22,4,73.63,73.63,0,0,1-12.53,5.56A77.19,77.19,0,0,1,350.59,173.2Z"/><path class="cls-18" d="M359.71,154.83a11,11,0,0,1-10.12-15.25A13.49,13.49,0,1,0,364,154,10.82,10.82,0,0,1,359.71,154.83Z"/><rect class="cls-4" x="317.02" y="151.48" width="67.02" height="3.11" transform="translate(-5.54 292.69) rotate(-45)"/><path class="cls-18" d="M162.05,212a45.7,45.7,0,1,0,45.7,45.7A45.75,45.75,0,0,0,162.05,212Z"/><path class="cls-2" d="M162.05,226.11a31.59,31.59,0,1,0,31.59,31.59A31.62,31.62,0,0,0,162.05,226.11Zm0,5.95a25.49,25.49,0,0,1,15.88,5.54l-36,36a25.61,25.61,0,0,1,20.1-41.52Zm0,51.27a25.53,25.53,0,0,1-15.89-5.53l36-36a25.61,25.61,0,0,1-20.1,41.52Z"/><path class="cls-5" d="M154.74,168.84h-4.37c-.11-.46-.22-.92-.35-1.37l3.78-2.17a4.07,4.07,0,0,0,1.5-5.54l-.45-.8a4.08,4.08,0,0,0-5.55-1.5l-3.8,2.17q-.54-.58-1.14-1.14l2.18-3.8a4.07,4.07,0,0,0-1.51-5.54l-.8-.46a4.07,4.07,0,0,0-5.54,1.51L136.52,154c-.44-.14-.9-.25-1.36-.35v-4.37a4.08,4.08,0,0,0-4.07-4.07h-.92a4.08,4.08,0,0,0-4.06,4.07v4.37c-.46.1-.92.21-1.37.35l-2.16-3.78a4.08,4.08,0,0,0-5.55-1.51l-.8.46a4.08,4.08,0,0,0-1.5,5.54l2.18,3.8q-.6.56-1.14,1.14l-3.8-2.17a4.08,4.08,0,0,0-5.55,1.5l-.46.8a4.07,4.07,0,0,0,1.51,5.54l3.78,2.17c-.13.45-.24.91-.35,1.37h-4.37a4.08,4.08,0,0,0-4.06,4.06v.92a4.07,4.07,0,0,0,4.06,4.06h4.37c.11.46.22.92.35,1.37l-3.78,2.17A4.07,4.07,0,0,0,106,187l.46.8a4.08,4.08,0,0,0,5.55,1.51l3.8-2.18q.54.58,1.14,1.14l-2.18,3.8a4.08,4.08,0,0,0,1.5,5.54l.8.46a4.08,4.08,0,0,0,5.55-1.51l2.16-3.78c.45.14.91.25,1.37.35v4.37a4.08,4.08,0,0,0,4.06,4.07h.92a4.08,4.08,0,0,0,4.07-4.07v-4.37c.46-.1.92-.21,1.36-.35l2.17,3.78a4.07,4.07,0,0,0,5.54,1.51l.8-.46a4.07,4.07,0,0,0,1.51-5.54l-2.18-3.8q.6-.55,1.14-1.14l3.8,2.18a4.08,4.08,0,0,0,5.55-1.51l.45-.8a4.07,4.07,0,0,0-1.5-5.54L150,179.25c.13-.45.24-.91.35-1.37h4.37a4.07,4.07,0,0,0,4.06-4.06v-.92A4.08,4.08,0,0,0,154.74,168.84Zm-24.11,18.47a13.95,13.95,0,1,1,14-13.95A13.95,13.95,0,0,1,130.63,187.31Z"/><path class="cls-4" d="M121.57,120.9l-2.88.65c-.14-.29-.28-.57-.44-.85l2.17-2a2.75,2.75,0,0,0,.16-3.89l-.42-.46a2.77,2.77,0,0,0-3.89-.16l-2.18,2c-.3-.21-.61-.4-.92-.58l.86-2.84a2.76,2.76,0,0,0-1.82-3.44l-.6-.18a2.77,2.77,0,0,0-3.44,1.83l-.86,2.82q-.48,0-1,0l-.65-2.88a2.77,2.77,0,0,0-3.3-2.08l-.6.14a2.77,2.77,0,0,0-2.08,3.29l.66,2.89c-.29.14-.58.28-.85.44l-2-2.17a2.76,2.76,0,0,0-3.89-.17l-.46.43a2.74,2.74,0,0,0-.16,3.88l2,2.19c-.21.3-.4.61-.59.92l-2.83-.87a2.76,2.76,0,0,0-3.44,1.83l-.18.6a2.76,2.76,0,0,0,1.82,3.44l2.83.86c0,.32,0,.63,0,1l-2.89.65a2.76,2.76,0,0,0-2.07,3.29l.14.61a2.76,2.76,0,0,0,3.29,2.08l2.89-.66c.14.29.28.58.44.85l-2.18,2a2.76,2.76,0,0,0-.16,3.89l.42.46a2.76,2.76,0,0,0,3.89.16l2.18-2c.31.21.61.4.93.58l-.87,2.84a2.76,2.76,0,0,0,1.83,3.44l.59.18a2.76,2.76,0,0,0,3.44-1.83l.86-2.82q.48,0,1,0l.66,2.89a2.75,2.75,0,0,0,3.29,2.07l.61-.14a2.76,2.76,0,0,0,2.07-3.29l-.65-2.89c.29-.14.57-.28.85-.44l2,2.18a2.77,2.77,0,0,0,3.89.16l.45-.42a2.76,2.76,0,0,0,.17-3.89l-2-2.19c.2-.3.4-.6.58-.92l2.84.87a2.77,2.77,0,0,0,3.44-1.83l.18-.6a2.76,2.76,0,0,0-1.83-3.43l-2.82-.87c0-.31,0-.63,0-.95l2.89-.66a2.76,2.76,0,0,0,2.08-3.29l-.14-.61A2.76,2.76,0,0,0,121.57,120.9Zm-13.15,15.81a9.45,9.45,0,1,1,7.12-11.3A9.45,9.45,0,0,1,108.42,136.71Z"/><path class="cls-4" d="M385.94,195.57l-2.84.65a8.29,8.29,0,0,0-.43-.84l2.14-2a2.72,2.72,0,0,0,.16-3.82l-.42-.45a2.7,2.7,0,0,0-3.82-.16l-2.14,2c-.3-.2-.6-.39-.91-.57l.85-2.79a2.71,2.71,0,0,0-1.79-3.38l-.59-.17a2.71,2.71,0,0,0-3.38,1.79l-.84,2.77c-.31,0-.63,0-.94,0l-.65-2.84a2.71,2.71,0,0,0-3.23-2l-.6.14a2.71,2.71,0,0,0-2,3.24l.65,2.83c-.29.14-.57.28-.84.43l-2-2.13a2.72,2.72,0,0,0-3.83-.16l-.45.41a2.72,2.72,0,0,0-.16,3.82l2,2.15c-.2.29-.39.6-.57.91l-2.79-.86a2.73,2.73,0,0,0-3.38,1.8l-.18.58a2.72,2.72,0,0,0,1.8,3.38l2.77.85c0,.31,0,.62,0,.94l-2.84.64a2.72,2.72,0,0,0-2,3.24l.14.6a2.7,2.7,0,0,0,3.23,2l2.84-.64c.14.28.27.56.43.83l-2.14,2a2.72,2.72,0,0,0-.16,3.82l.42.45a2.7,2.7,0,0,0,3.82.16l2.15-2q.44.3.9.57l-.85,2.79a2.7,2.7,0,0,0,1.79,3.37l.59.18a2.71,2.71,0,0,0,3.38-1.79l.85-2.78c.31,0,.62,0,.94,0l.64,2.84a2.71,2.71,0,0,0,3.24,2l.59-.13a2.72,2.72,0,0,0,2-3.24l-.64-2.83c.28-.14.56-.28.83-.43l2,2.13a2.7,2.7,0,0,0,3.82.16l.45-.41a2.72,2.72,0,0,0,.16-3.82l-2-2.15c.21-.3.4-.6.58-.91l2.78.85a2.71,2.71,0,0,0,3.38-1.79l.18-.59a2.7,2.7,0,0,0-1.8-3.37l-2.77-.85c0-.31,0-.63,0-.94l2.83-.65a2.7,2.7,0,0,0,2-3.23l-.13-.6A2.72,2.72,0,0,0,385.94,195.57ZM373,211.11a9.28,9.28,0,1,1,7-11.1A9.28,9.28,0,0,1,373,211.11Z"/><rect class="cls-18" x="246.54" y="419.7" width="135.37" height="7.7"/><polygon class="cls-5" points="368.92 419.7 259.53 419.7 306.81 303.11 321.64 303.11 368.92 419.7"/><g class="cls-19"><rect class="cls-18" x="239.75" y="376.85" width="148.94" height="27.95"/><rect class="cls-18" x="239.75" y="321.29" width="148.94" height="27.95"/></g><path class="cls-9" d="M331.76,344.82c8.81,26.77,9.62,53.38,3.82,74.88h33.34L321.64,303.11h-11.3A145.59,145.59,0,0,1,331.76,344.82Z"/><g class="cls-20"><path class="cls-2" d="M304.76,326.49q-4.61,12.09-9.2,24.19Q288.23,370,280.88,389.3q-1.69,4.47-3.4,8.93c-1,2.67,3.27,3.82,4.28,1.17q4.59-12.09,9.2-24.19,7.34-19.32,14.68-38.62l3.39-8.93c1-2.67-3.26-3.82-4.27-1.17Z"/></g><rect class="cls-18" x="110.43" y="422.9" width="79.07" height="4.5"/><polygon class="cls-5" points="181.91 422.9 118.02 422.9 145.64 354.8 154.29 354.8 181.91 422.9"/><g class="cls-21"><rect class="cls-18" x="106.47" y="397.87" width="87" height="16.32"/><rect class="cls-18" x="106.47" y="365.42" width="87" height="16.32"/></g><path class="cls-9" d="M160.21,379.16c5.15,15.64,5.62,31.19,2.23,43.74h19.47L154.3,354.8h-6.6A85.18,85.18,0,0,1,160.21,379.16Z"/><g class="cls-20"><path class="cls-2" d="M144.44,368.46q-2.69,7.07-5.38,14.13-4.27,11.28-8.57,22.56l-2,5.21c-.6,1.56,1.9,2.23,2.49.69q2.69-7.07,5.38-14.14L145,374.36q1-2.61,2-5.22c.59-1.56-1.91-2.23-2.5-.68Z"/></g><polygon class="cls-22" points="369.14 244.89 361.6 244.89 361.6 237.35 358.92 237.35 358.92 244.89 351.38 244.89 351.38 247.57 358.92 247.57 358.92 255.11 361.6 255.11 361.6 247.57 369.14 247.57 369.14 244.89"/><polygon class="cls-22" points="415.06 320.9 408.46 320.9 408.46 314.3 406.11 314.3 406.11 320.9 399.5 320.9 399.5 323.26 406.11 323.26 406.11 329.86 408.46 329.86 408.46 323.26 415.06 323.26 415.06 320.9"/><polygon class="cls-22" points="419.73 266.15 415.96 266.15 415.96 262.38 414.62 262.38 414.62 266.15 410.85 266.15 410.85 267.49 414.62 267.49 414.62 271.26 415.96 271.26 415.96 267.49 419.73 267.49 419.73 266.15"/><polygon class="cls-22" points="263.47 78.31 259.7 78.31 259.7 74.54 258.36 74.54 258.36 78.31 254.58 78.31 254.58 79.66 258.36 79.66 258.36 83.42 259.7 83.42 259.7 79.66 263.47 79.66 263.47 78.31"/><polygon class="cls-22" points="293.56 64.35 286.02 64.35 286.02 56.81 283.34 56.81 283.34 64.35 275.8 64.35 275.8 67.04 283.34 67.04 283.34 74.57 286.02 74.57 286.02 67.04 293.56 67.04 293.56 64.35"/><polygon class="cls-22" points="102.04 229.74 95.44 229.74 95.44 223.14 93.08 223.14 93.08 229.74 86.48 229.74 86.48 232.09 93.08 232.09 93.08 238.7 95.44 238.7 95.44 232.09 102.04 232.09 102.04 229.74"/><polygon class="cls-22" points="75.71 171.6 71.93 171.6 71.93 167.84 70.59 167.84 70.59 171.6 66.82 171.6 66.82 172.95 70.59 172.95 70.59 176.72 71.93 176.72 71.93 172.95 75.71 172.95 75.71 171.6"/><polygon class="cls-22" points="71.26 330.86 67.49 330.86 67.49 327.09 66.15 327.09 66.15 330.86 62.38 330.86 62.38 332.2 66.15 332.2 66.15 335.97 67.49 335.97 67.49 332.2 71.26 332.2 71.26 330.86"/><polygon class="cls-22" points="149.27 93.42 142.66 93.42 142.66 86.82 140.31 86.82 140.31 93.42 133.71 93.42 133.71 95.77 140.31 95.77 140.31 102.38 142.66 102.38 142.66 95.77 149.27 95.77 149.27 93.42"/><path class="cls-23" d="M224.11,87.13A2.09,2.09,0,1,1,222,85,2.1,2.1,0,0,1,224.11,87.13Z"/><path class="cls-23" d="M410.85,240.85a4,4,0,1,1-4-3.95A4,4,0,0,1,410.85,240.85Z"/><path class="cls-23" d="M59.74,226.11A2.09,2.09,0,1,1,57.65,224,2.08,2.08,0,0,1,59.74,226.11Z"/><path class="cls-23" d="M181.32,68.36a4,4,0,1,1-4-4A4,4,0,0,1,181.32,68.36Z"/><path class="cls-23" d="M64.47,122.57a2.09,2.09,0,1,1-2.09-2.09A2.09,2.09,0,0,1,64.47,122.57Z"/><path class="cls-23" d="M75.22,393.65a4,4,0,1,1-4-4A4,4,0,0,1,75.22,393.65Z"/><path class="cls-23" d="M358.24,282.38a2.09,2.09,0,1,1-2.09-2.09A2.09,2.09,0,0,1,358.24,282.38Z"/><path class="cls-23" d="M362.35,64.41a2.09,2.09,0,1,1-2.09-2.09A2.1,2.1,0,0,1,362.35,64.41Z"/><path class="cls-23" d="M87.52,269.51a4,4,0,1,1-4-4A4,4,0,0,1,87.52,269.51Z"/><path class="cls-18" d="M196.37,103.39a1.91,1.91,0,0,0-.45,1.19,2,2,0,0,0,1.23.27h42.34a1.89,1.89,0,0,0,1.24-.28,2,2,0,0,0-.45-1.18L219.66,71.8a1.88,1.88,0,0,0-1.34-1,1.85,1.85,0,0,0-1.33,1Z"/><path class="cls-5" d="M239.49,109.32H197.15c-2.38,0-4.27-.95-5.17-2.61a5.56,5.56,0,0,1,.64-5.76h0l20.62-31.6a5.77,5.77,0,0,1,10.17,0L244,101a5.58,5.58,0,0,1,.63,5.76C243.76,108.37,241.88,109.32,239.49,109.32Zm-43.12-5.93a1.91,1.91,0,0,0-.45,1.19,2,2,0,0,0,1.23.27h42.34a1.89,1.89,0,0,0,1.24-.28,2,2,0,0,0-.45-1.18L219.66,71.8a1.88,1.88,0,0,0-1.34-1,1.85,1.85,0,0,0-1.33,1Z"/><path class="cls-2" d="M217.13,100.08a1.64,1.64,0,0,1,1.16-2.81,1.63,1.63,0,0,1,1.18.47,1.64,1.64,0,0,1,0,2.34,1.63,1.63,0,0,1-1.18.47A1.58,1.58,0,0,1,217.13,100.08Zm-1-19.37h4.34l-.81,13.87H217Z"/></g></svg>