<svg id="uuid-74e62280-08ee-4d6d-8adb-da2247ffc844" height="512" viewBox="0 0 64 64" width="512" xmlns="http://www.w3.org/2000/svg" fill="#6777ef"><path d="m19.587 30.5 12.413-21.5 3.031 5.25h5.485l-7.866-13.625c-.289-.5-1.01-.5-1.299 0l-14.506 25.126 2.742 4.75z"/><path d="m44.99 22h-5.485l12.413 21.5h-6.063l-2.742 4.75h15.733c.577 0 .938-.625.649-1.125l-14.506-25.125z"/><path d="m36.908 43.5h-24.827l3.031-5.25-2.742-4.75-7.866 13.625c-.289.5.072 1.125.649 1.125h29.012l2.742-4.75z"/><path d="m19.01 42h5.485l-12.414-21.5h6.063l2.742-4.75h-15.732c-.577 0-.938.625-.649 1.125l14.506 25.125z"/><path d="m27.093 20.5h24.826l-3.031 5.25 2.742 4.75 7.866-13.625c.289-.5-.072-1.125-.649-1.125h-29.012z"/><path d="m44.414 33.5-12.414 21.5-3.031-5.25h-5.485l7.866 13.625c.289.5 1.01.5 1.299 0l14.506-25.126-2.742-4.75z"/></svg>
