<?xml version="1.0" encoding="utf-8"?>
<!-- Generator: Adobe Illustrator 24.0.1, SVG Export Plug-In . SVG Version: 6.00 Build 0)  -->
<svg version="1.1" id="图层_1" xmlns="http://www.w3.org/2000/svg" xmlns:xlink="http://www.w3.org/1999/xlink" x="0px" y="0px"
	 viewBox="0 0 200 200" style="enable-background:new 0 0 200 200;" xml:space="preserve">
<style type="text/css">
	.st0{display:none;fill:#FFFFFF;}
	.st1{fill:#ED2668;}
</style>
<rect class="st0" width="200" height="200"/>
<polygon class="st1" points="100,138.4 147.5,96.2 86.5,121.5 108.6,98.5 108.6,98.5 157.7,50.4 100,72.7 100,61.6 52.4,103.8 
	113.4,78.5 91.4,101.5 91.4,101.5 42.3,149.6 100,127.3 "/>
<path d="M141.6,77.4c3.8,6.9,5.8,14.7,5.8,22.6c0,26.1-21.1,47.4-47.3,47.4c-6.7,0-13.3-1.4-19.3-4.1l-18.9,7.3
	c28,21,67.8,15.4,88.8-12.6c15.9-21.2,17-50,2.7-72.3L141.6,77.4z"/>
<path d="M58.4,122.6c-3.8-6.9-5.8-14.7-5.8-22.6c0-26.1,21.1-47.4,47.3-47.4c6.7,0,13.3,1.4,19.3,4.1l18.9-7.3
	c-28-21-67.8-15.4-88.8,12.6c-15.9,21.2-17,50-2.7,72.3L58.4,122.6z"/>
</svg>
