<?xml version="1.0" encoding="utf-8"?>
<!-- Generator: Adobe Illustrator 24.0.1, SVG Export Plug-In . SVG Version: 6.00 Build 0)  -->
<svg version="1.1" id="图层_1" xmlns="http://www.w3.org/2000/svg" xmlns:xlink="http://www.w3.org/1999/xlink" x="0px" y="0px"
	 viewBox="0 0 200 200" style="enable-background:new 0 0 200 200;" xml:space="preserve">
<style type="text/css">
	.st0{fill:#6777EF;}
</style>
<path class="st0" d="M116.8,110.7c-10.4-56-10.7-90-1-101.9c14.6-17.9,33.3-3.7,42.9,29.4c6.3,22.1-0.2,50.4-19.5,84.8L116.8,110.7z
	 M78.1,110.7c10.4-56,10.7-90,1-101.9C64.4-9.1,45.8,5.1,36.2,38.2c-6.3,22.1,0.2,50.4,19.5,84.8L78.1,110.7z"/>
<path class="st0" d="M100.3,73.9c57.8,0,100.1,79.9,80.9,104.6c-19.2,24.7-140.5,27.6-161.8,0S42.5,73.9,100.3,73.9z"/>
</svg>
