<svg id="Layer_1" viewBox="0 0 128 128" xmlns="http://www.w3.org/2000/svg"><path d="m92 2h-56c-4.4 0-8 3.6-8 8v108c0 4.4 3.6 8 8 8h56c4.4 0 8-3.6 8-8v-108c0-4.4-3.6-8-8-8zm-27 34.6c2.3-2.3 5.4-3.1 6.7-1.8 1.4 1.4.6 4.4-1.8 6.7-2.3 2.3-5.4 3.1-6.7 1.8-1.3-1.4-.5-4.4 1.8-6.7zm-24-14.6c-3.9 0-7-3.1-7-7s3.1-7 7-7 7 3.1 7 7-3.1 7-7 7zm32.1 44.5c-1.1 1.7-2.3 3.3-4.1 3.3s-2.4-1.1-4.5-1.1-2.7 1-4.4 1.1c-1.8.1-3.1-1.8-4.3-3.4-2.3-3.4-4.1-9.5-1.7-13.6 1.2-2 3.3-3.4 5.6-3.4 1.8 0 3.4 1.2 4.5 1.2s3.1-1.5 5.2-1.2c.9 0 3.4.3 5 2.7-.1.1-3 1.7-2.9 5.2 0 4.1 3.6 5.4 3.6 5.5-.1 0-.7 1.8-2 3.7z"/><path d="m36 126h56c4.4 0 8-3.6 8-8v-108c0-4.4-3.6-8-8-8h-56c-4.4 0-8 3.6-8 8v108c0 4.4 3.6 8 8 8z" fill="none" stroke="#000" stroke-miterlimit="10" stroke-width="4"/><circle cx="41" cy="15" r="2"/></svg>