<svg id="图层_1" data-name="图层 1" xmlns="http://www.w3.org/2000/svg" viewBox="0 0 200 200"><path d="M100,45.5A54.5,54.5,0,1,1,45.5,100,54.5,54.5,0,0,1,100,45.5m0-8A62.5,62.5,0,1,0,162.5,100,62.52,62.52,0,0,0,100,37.5Z"/><path d="M101.6,63.3c3.1,2.5,7.4,11.2,11.4,21.4,10.7.6,19.8,1.8,23.1,3.4.6.3.7,2.4.4,3.2-2,4.2-7.8,10.9-16,17.8,2.3,10,3.3,17.7,3.4,22.5,0,1-2.1,1.6-3.1,1.1-5.3-2.2-12-4.6-20.8-9.5-8.8,4.9-15.5,7.3-20.8,9.5-1,.5-3.1-.2-3.1-1.1.1-4.9,1.1-12.6,3.4-22.5-8.2-6.9-14.1-13.6-16-17.8-.4-.8-.2-2.9.4-3.2,3.3-1.6,12.4-2.8,23.1-3.4,3.9-10.2,8.3-18.9,11.4-21.4A3.6,3.6,0,0,1,101.6,63.3Z"/></svg>