<?xml version="1.0" encoding="utf-8"?>
<!-- Generator: Adobe Illustrator 24.0.1, SVG Export Plug-In . SVG Version: 6.00 Build 0)  -->
<svg version="1.1" id="图层_1" xmlns="http://www.w3.org/2000/svg" xmlns:xlink="http://www.w3.org/1999/xlink" x="0px" y="0px"
	 viewBox="0 0 200 200" style="enable-background:new 0 0 200 200;" xml:space="preserve">
<path d="M100,0C44.8,0,0,44.8,0,100s44.8,100,100,100s100-44.8,100-100S155.2,0,100,0z M158.6,86.1c-3.2,6.7-12.5,17.4-25.6,28.5
	c3.7,16,5.3,28.3,5.4,36c0,1.6-3.4,2.6-5,1.8c-8.5-3.5-19.2-7.4-33.3-15.2c-14.1,7.8-24.8,11.7-33.3,15.2c-1.6,0.8-5-0.3-5-1.8
	c0.2-7.8,1.8-20.2,5.4-36c-13.1-11-22.6-21.8-25.6-28.5c-0.6-1.3-0.3-4.6,0.6-5.1c5.3-2.6,19.8-4.5,37-5.4
	c6.2-16.3,13.3-30.2,18.2-34.2c1.6-0.8,3.5-0.8,5.1,0c5,4,11.8,17.9,18.2,34.2c17.1,1,31.7,2.9,37,5.4
	C158.9,81.4,159,84.8,158.6,86.1z"/>
</svg>
