<svg id="图层_1" data-name="图层 1" xmlns="http://www.w3.org/2000/svg" viewBox="0 0 200 200"><defs><style>.cls-1{fill:none;stroke:#000;stroke-miterlimit:10;stroke-width:8px;}</style></defs><path class="cls-1" d="M132,98.32c5.5-13.9,6.9-25.9,4.1-35.8-5.9-20.4-17.4-29.1-26.4-18.1-4.6,5.6-5.5,19.1-2.9,40.7a36.83,36.83,0,0,0-6.6-.6,44,44,0,0,0-10.3,1.3c2.8-22,1.9-35.8-2.8-41.4-9-11-20.5-2.3-26.4,18.1-3,10.4-1.3,22.9,4.9,37.7-15.7,15.4-23.4,38-15.2,48.7,13.1,17,87.8,15.2,99.6,0C157.82,138.92,149.12,114,132,98.32Z"/></svg>