<?xml version="1.0" encoding="utf-8"?>
<!-- Generator: Adobe Illustrator 24.0.1, SVG Export Plug-In . SVG Version: 6.00 Build 0)  -->
<svg version="1.1" id="图层_1" xmlns="http://www.w3.org/2000/svg" xmlns:xlink="http://www.w3.org/1999/xlink" x="0px" y="0px"
	 viewBox="0 0 200 200" style="enable-background:new 0 0 200 200;" xml:space="preserve">
<path d="M150.8,97.1c8.7-22.1,10.9-41.1,6.5-56.8C148,8,129.7-5.8,115.5,11.6c-7.3,8.9-8.7,30.3-4.6,64.6c-3.5-0.6-7-1-10.5-1
	c-5.5,0-10.9,0.7-16.3,2.1c4.4-34.9,3-56.8-4.4-65.7C65.4-5.8,47.1,8,37.8,40.3c-4.8,16.5-2.1,36.3,7.8,59.8
	c-24.9,24.4-37.1,60.3-24.1,77.3c20.8,27,139.3,24.1,158.1,0C191.6,161.6,177.8,122,150.8,97.1z"/>
</svg>
