<svg id="Layer_1" enable-background="new 0 0 52 52" viewBox="0 0 52 52" xmlns="http://www.w3.org/2000/svg"><g><path d="m46.7 2.1h-41.4c-1.8 0-3.3 1.4-3.3 3.2v30.5c0 1.8 1.5 3.2 3.3 3.2h13.9v5.3h-2.5c-1 0-1.8.8-1.8 1.8v2.1c0 1 .8 1.8 1.8 1.8h18.8c1 0 1.8-.8 1.8-1.8v-2.1c0-1-.8-1.8-1.8-1.8h-2.5v-5.3h13.9c1.8 0 3.3-1.5 3.3-3.3v-30.4c-.2-1.8-1.7-3.2-3.5-3.2zm-15.3 36.9v5.3h-10.8v-5.3zm-8.4-5c0-.4.3-.8.8-.8h4.5c.4 0 .8.3.8.8 0 .4-.3.8-.8.8h-4.5c-.4-.1-.8-.4-.8-.8zm25.5-5h-45v-23.7c0-1 .8-1.8 1.8-1.8h41.5c1 0 1.8.8 1.8 1.8v23.7z"/><path d="m18.8 9.5-9.1 9.1c-.3.3-.3.8 0 1.1s.8.3 1.1 0l9.1-9.1c.3-.3.3-.8 0-1.1s-.8-.3-1.1 0z"/><path d="m15.1 9.8c.3-.3.3-.8 0-1.1s-.8-.3-1.1 0l-5.3 5.3c-.3.3-.3.8 0 1.1s.8.3 1.1 0z"/></g></svg>