<svg xmlns="http://www.w3.org/2000/svg" viewBox="0 0 500 372.61"><defs><style>.cls-1{fill:#ebebeb;}.cls-2{fill:#e6e6e6;}.cls-3{fill:#f0f0f0;}.cls-4{fill:#f5f5f5;}.cls-5{fill:#fafafa;}.cls-15,.cls-16,.cls-6{fill:#263238;}.cls-7{fill:#ffc3bd;}.cls-8{fill:#407bff;}.cls-10,.cls-16,.cls-9{opacity:0.2;}.cls-11,.cls-12{fill:#fff;}.cls-11{opacity:0.7;}.cls-13{fill:#ed847e;}.cls-14,.cls-15{opacity:0.1;}.cls-17{fill:#e0e0e0;}</style></defs><title>email</title><g id="Background_Complete" data-name="Background Complete"><rect class="cls-1" y="327.45" width="500" height="0.25"/><rect class="cls-1" x="416.78" y="343.54" width="18.89" height="0.25"/><rect class="cls-1" x="293.05" y="341.8" width="29.47" height="0.25"/><rect class="cls-1" x="368.67" y="334.26" width="47.11" height="0.25"/><rect class="cls-1" x="52.46" y="335.94" width="10.97" height="0.25"/><rect class="cls-1" x="72.33" y="335.94" width="38.56" height="0.25"/><rect class="cls-1" x="171" y="340.16" width="54.15" height="0.25"/><path class="cls-1" d="M237,337.8H43.91a5.71,5.71,0,0,1-5.7-5.71V60.66A5.71,5.71,0,0,1,43.91,55H237a5.71,5.71,0,0,1,5.71,5.71V332.09A5.71,5.71,0,0,1,237,337.8ZM43.91,55.2a5.46,5.46,0,0,0-5.45,5.46V332.09a5.46,5.46,0,0,0,5.45,5.46H237a5.47,5.47,0,0,0,5.46-5.46V60.66A5.47,5.47,0,0,0,237,55.2Z" transform="translate(0 -54.95)"/><path class="cls-1" d="M453.31,337.8H260.21a5.72,5.72,0,0,1-5.71-5.71V60.66A5.72,5.72,0,0,1,260.21,55h193.1A5.71,5.71,0,0,1,459,60.66V332.09A5.71,5.71,0,0,1,453.31,337.8ZM260.21,55.2a5.47,5.47,0,0,0-5.46,5.46V332.09a5.47,5.47,0,0,0,5.46,5.46h193.1a5.47,5.47,0,0,0,5.46-5.46V60.66a5.47,5.47,0,0,0-5.46-5.46Z" transform="translate(0 -54.95)"/><rect class="cls-1" x="416.78" y="343.54" width="18.89" height="0.25"/><rect class="cls-1" x="293.05" y="341.8" width="29.47" height="0.25"/><rect class="cls-1" x="368.67" y="334.26" width="47.11" height="0.25"/><rect class="cls-1" x="52.46" y="335.94" width="10.97" height="0.25"/><rect class="cls-1" x="72.33" y="335.94" width="38.56" height="0.25"/><rect class="cls-1" x="171" y="340.16" width="54.15" height="0.25"/><rect class="cls-2" x="381.87" y="162.22" width="23.03" height="4.78" transform="translate(786.76 274.26) rotate(180)"/><rect class="cls-3" x="132.14" y="162.22" width="249.72" height="4.78" transform="translate(514.01 274.26) rotate(180)"/><polygon class="cls-4" points="273.79 27.75 334.83 27.75 325.21 107.26 264.17 107.26 273.79 27.75"/><polygon class="cls-5" points="284.9 38.18 321.2 38.18 314.11 96.84 277.8 96.84 284.9 38.18"/><polygon class="cls-4" points="185.31 31.39 259.36 31.39 250.18 107.26 176.14 107.26 185.31 31.39"/><polygon class="cls-5" points="195.91 41.33 246.35 41.33 239.58 97.32 189.14 97.32 195.91 41.33"/><polygon class="cls-3" points="313.63 54.97 364.65 54.97 358.33 107.26 307.3 107.26 313.63 54.97"/><polygon class="cls-5" points="320.93 61.83 355.69 61.83 351.02 100.41 316.26 100.41 320.93 61.83"/><path class="cls-2" d="M435.35,230.72H403.81a25.08,25.08,0,0,0-24,19.14l-8.33,34.8-17.12-.06h-.06a17,17,0,0,0-16.7,13.82l-2.28,11.91a8.81,8.81,0,0,0-7.23,6.61h12.09L326,382.4h3.62l14.22-65.46h9.94L339.51,382.4h3.62l14.22-65.46H397l14.22,65.46h3.62l-14.22-65.46h9.94l14.22,65.46h3.62l-14.22-65.46h-1.49a25,25,0,0,0,24-19.12l12-50A13.61,13.61,0,0,0,435.35,230.72Zm-67,66.86a16.57,16.57,0,0,1-15.87,12.66H339.84l2.12-11a12.58,12.58,0,0,1,12.33-10.2h0l16.06.05Z" transform="translate(0 -54.95)"/><rect class="cls-3" x="193.79" y="222.11" width="34.43" height="152.17" transform="translate(422 541.44) rotate(180)"/><rect class="cls-3" x="70.04" y="374.28" width="151.56" height="8.12" transform="translate(291.65 701.73) rotate(180)"/><rect class="cls-4" x="63.43" y="167.16" width="130.36" height="152.17"/><rect class="cls-3" x="76.97" y="182.93" width="103.29" height="66.09"/><rect class="cls-3" x="76.97" y="261.55" width="103.29" height="42.01"/><rect class="cls-4" x="99.22" y="234.75" width="58.78" height="5.76" rx="2.58" transform="translate(257.22 420.3) rotate(180)"/><rect class="cls-4" x="99.22" y="313.62" width="58.78" height="5.76" rx="2.58" transform="translate(257.22 578.05) rotate(180)"/><path class="cls-2" d="M329.26,230.72H297.72a25.08,25.08,0,0,0-24,19.14l-8.33,34.8-17.12-.06h0a17,17,0,0,0-16.71,13.82l-2.28,11.91a8.82,8.82,0,0,0-7.23,6.61h12.1L219.87,382.4h3.61l14.22-65.46h10L233.43,382.4H237l14.22-65.46h39.66l14.22,65.46h3.61l-14.22-65.46h10L318.7,382.4h3.61l-14.22-65.46H306.6a25,25,0,0,0,24-19.12l12-50A13.62,13.62,0,0,0,329.26,230.72Zm-67,66.86a16.59,16.59,0,0,1-15.88,12.66H233.76l2.12-11a12.57,12.57,0,0,1,12.33-10.2h0l16.07.05Z" transform="translate(0 -54.95)"/></g><g id="Shadow"><ellipse id="_Path_" data-name="&lt;Path&gt;" class="cls-4" cx="250" cy="361.29" rx="193.89" ry="11.32"/></g><g id="Character"><path class="cls-6" d="M150.93,108c.69-12.09,26.25-10.89,31.27.39s.9,21.65,14.83,28.46c24.63,12,27.31,27.94,18,43.63s-45.67,26.68-65.45,1c-19.51-25.35,10.15-31-5.2-42.93C131,128.09,132.14,109.46,150.93,108Z" transform="translate(0 -54.95)"/><path class="cls-7" d="M140,166.21c-.33.4-.51.6-.74.86s-.45.48-.67.72c-.45.45-.9.9-1.35,1.31-.91.85-1.84,1.63-2.78,2.39a57.18,57.18,0,0,1-5.93,4.07,66,66,0,0,1-6.27,3.31c-1.08.48-2.15,1-3.24,1.4l-1.64.63-.82.31a10,10,0,0,1-1.47.43,6.88,6.88,0,0,1-6.79-2.36,11.48,11.48,0,0,1-2.2-4.39,30.89,30.89,0,0,1-1-7.44,70.28,70.28,0,0,1,1.17-13.8l4.48.37a125.2,125.2,0,0,0,1.1,12.86,27.6,27.6,0,0,0,1.38,5.66,3.72,3.72,0,0,0,.88,1.49c.07,0,0-.09-.26-.22a2,2,0,0,0-.54-.12s0,0,.12-.07l.71-.35,1.43-.68,2.8-1.44c1.83-1,3.64-2.05,5.36-3.2s3.4-2.33,5-3.61c.79-.63,1.56-1.28,2.28-2,.37-.33.71-.67,1.05-1l.49-.48.36-.39Z" transform="translate(0 -54.95)"/><path class="cls-8" d="M140.2,152.21c-3.67-.9-13,11.18-13,11.18l5.67,10.79s15.67-8.85,15.08-13.72C147.33,155.38,145.55,153.52,140.2,152.21Z" transform="translate(0 -54.95)"/><path class="cls-9" d="M140.2,152.21c-3.67-.9-13,11.18-13,11.18l5.67,10.79s15.67-8.85,15.08-13.72C147.33,155.38,145.55,153.52,140.2,152.21Z" transform="translate(0 -54.95)"/><path class="cls-9" d="M137.77,156.39l.9,14.13c-3.12,2.13-5.81,3.66-5.81,3.66l-1.18-2.26Z" transform="translate(0 -54.95)"/><path class="cls-7" d="M110.08,157l4.13-9.2-8.78,2.09s-1.52,5.5,1.16,8Z" transform="translate(0 -54.95)"/><polygon class="cls-7" points="113.7 86.27 106.16 86.9 105.43 94.95 114.21 92.86 113.7 86.27"/><polygon class="cls-7" points="148.33 347.63 139.48 347.98 137.91 327.42 146.76 327.07 148.33 347.63"/><polygon class="cls-7" points="227.14 272.03 221.37 278.78 203.89 267.6 209.66 260.85 227.14 272.03"/><path class="cls-6" d="M219.43,333.35l5.29-8.46a.7.7,0,0,1,.89-.28l7.29,3.22a1.43,1.43,0,0,1,.59,2c-1.9,2.92-3,4.23-5.28,7.95-1.43,2.29-3.75,7-5.73,10.13s-5.2,1.37-4.66-.12c2.42-6.69,1.72-9.9,1.29-12.93A2.31,2.31,0,0,1,219.43,333.35Z" transform="translate(0 -54.95)"/><path class="cls-6" d="M139.19,402.41l9.6-2.69a.7.7,0,0,1,.85.39l3.22,7.29a1.43,1.43,0,0,1-1,1.9c-3.36.88-5,1.14-9.25,2.32-2.6.73-10.19,4.15-13.91,4.45s-4.2-3.37-2.68-3.82a21.13,21.13,0,0,0,11.84-8.92A2.32,2.32,0,0,1,139.19,402.41Z" transform="translate(0 -54.95)"/><g class="cls-10"><polygon points="137.91 327.43 138.72 338.02 147.57 337.68 146.76 327.08 137.91 327.43"/><polygon points="209.66 260.85 203.89 267.6 212.91 273.36 218.68 266.61 209.66 260.85"/></g><path class="cls-8" d="M135.57,155.9c-.86,5-1.68,17.7,2,47.22l36,2.22c.28-13.8,1-24.92,8.47-51.59a4.58,4.58,0,0,0-4.12-5.82c-2.74-.16-6.19-.27-9.71-.12a121.26,121.26,0,0,0-16.55,1.5c-4.67.84-9.78,2.14-12.75,2.93A4.57,4.57,0,0,0,135.57,155.9Z" transform="translate(0 -54.95)"/><path class="cls-9" d="M135.57,155.9c-.86,5-1.68,17.7,2,47.22l36,2.22c.28-13.8,1-24.92,8.47-51.59a4.58,4.58,0,0,0-4.12-5.82c-2.74-.16-6.19-.27-9.71-.12a121.26,121.26,0,0,0-16.55,1.5c-4.67.84-9.78,2.14-12.75,2.93A4.57,4.57,0,0,0,135.57,155.9Z" transform="translate(0 -54.95)"/><path class="cls-6" d="M137.57,203.12s-11.2,67.82-12.29,94.87c-1.13,28.14,11.53,92.14,11.53,92.14h12s-4.38-61.1-1.61-88.63c3-30,16.73-96.76,16.73-96.76Z" transform="translate(0 -54.95)"/><polygon class="cls-8" points="149.85 335.61 135.77 335.61 134.73 331.12 150.5 330.57 149.85 335.61"/><path class="cls-9" d="M152.05,221.06c-9.94,17.23-4.88,50.1-2.5,62.36,2.72-18,6.79-40,9.91-56.15C158.68,218,156.63,213.11,152.05,221.06Z" transform="translate(0 -54.95)"/><path class="cls-6" d="M147.08,203.7s5,81.24,11.2,92.48C168.15,314,210,328.61,210,328.61l7.86-9.2s-26.18-21.77-40-34.14c-3.29-22.47,8.34-57.93-4.23-79.93Z" transform="translate(0 -54.95)"/><path class="cls-8" d="M174.23,203.26l.72,3.28c.11.26-.2.49-.62.47l-37-2.29c-.33,0-.59-.2-.59-.4l-.13-3.24c0-.23.28-.4.64-.38L173.66,203A.67.67,0,0,1,174.23,203.26Z" transform="translate(0 -54.95)"/><path class="cls-6" d="M169.08,207l1,.06c.19,0,.35-.08.34-.2l-.2-4.21c0-.13-.17-.24-.36-.25l-1-.06c-.19,0-.35.08-.34.2l.2,4.22C168.72,206.91,168.89,207,169.08,207Z" transform="translate(0 -54.95)"/><path class="cls-6" d="M140,205.24l1,.06c.2,0,.35-.08.35-.2l-.2-4.22c0-.12-.17-.23-.37-.24l-1-.06c-.2,0-.35.08-.34.2l.19,4.21C139.66,205.12,139.82,205.23,140,205.24Z" transform="translate(0 -54.95)"/><path class="cls-6" d="M154.55,206.14l1,.06c.19,0,.35-.08.34-.21l-.2-4.21c0-.12-.17-.23-.36-.25l-1-.06c-.19,0-.35.08-.34.21l.2,4.21C154.19,206,154.36,206.12,154.55,206.14Z" transform="translate(0 -54.95)"/><polygon class="cls-8" points="218.81 263.42 209.05 274.84 204.43 272.99 215.3 259.04 218.81 263.42"/><path class="cls-8" d="M140.05,183.05a5.09,5.09,0,0,0-4,4.84,3.86,3.86,0,0,0-.39-.65,4.23,4.23,0,0,0-.64-.76,5.2,5.2,0,0,0-.79-.63,4.64,4.64,0,0,0-.89-.45,4.57,4.57,0,0,0-1-.27,4.8,4.8,0,0,0-1-.09,6.51,6.51,0,0,0-1,.12,5,5,0,0,0-1.83.8,4.68,4.68,0,0,0-.76.64,5.82,5.82,0,0,0-.62.79,4.77,4.77,0,0,0-.46.9,6.2,6.2,0,0,0-.27,1,5.43,5.43,0,0,0-.07,1,4.69,4.69,0,0,0,.42,1.95,5.45,5.45,0,0,0,.49.88,4.61,4.61,0,0,0,.64.75,4.75,4.75,0,0,0,.79.63,4.64,4.64,0,0,0,.89.45,5.26,5.26,0,0,0,1,.27,6.34,6.34,0,0,0,.75.07,5.09,5.09,0,0,0,2,9.65,5.11,5.11,0,0,0,2.09,9.66,5.09,5.09,0,0,0,2.19,9.62,5.1,5.1,0,0,0-2,1.8,5.1,5.1,0,0,0-.72,1.86,4.73,4.73,0,0,0-.08,1,4.81,4.81,0,0,0,.42,2,5,5,0,0,0,.49.87,4.74,4.74,0,0,0,.65.76,5.31,5.31,0,0,0,.78.64,5.15,5.15,0,0,0,3.85.68,4.79,4.79,0,0,0,1-.31,5.66,5.66,0,0,0,.87-.48,5.31,5.31,0,0,0,.76-.65,4.58,4.58,0,0,0,.62-.79,4.77,4.77,0,0,0,.46-.9,5.16,5.16,0,0,0,.27-1,4.9,4.9,0,0,0,.08-.76,5.1,5.1,0,0,0,9.67-2.07,5.1,5.1,0,0,0,9.66-2.11,5.11,5.11,0,0,0,9.67-2.11,5.11,5.11,0,0,0,9.67-2.11,5.09,5.09,0,0,0,9.65-2.14,3.86,3.86,0,0,0,.39.65,4.23,4.23,0,0,0,.64.76,5.39,5.39,0,0,0,.79.64,5,5,0,0,0,.89.45,5.26,5.26,0,0,0,1,.27,4.82,4.82,0,0,0,1,.08,4.69,4.69,0,0,0,1-.11,5.75,5.75,0,0,0,1.83-.8,5.92,5.92,0,0,0,.76-.65,5.82,5.82,0,0,0,.62-.79,4.21,4.21,0,0,0,.45-.9,5.18,5.18,0,0,0,.28-.95,5.62,5.62,0,0,0,.08-1,5.5,5.5,0,0,0-.42-2,5.43,5.43,0,0,0-.5-.87,4.68,4.68,0,0,0-.64-.76,6.06,6.06,0,0,0-.79-.63,5,5,0,0,0-.89-.45,5.26,5.26,0,0,0-1-.27,6.17,6.17,0,0,0-.74-.07,5.09,5.09,0,0,0-2-9.65,5.11,5.11,0,0,0-2.1-9.65,5.1,5.1,0,0,0-2.18-9.63,6,6,0,0,0,.65-.37,5.45,5.45,0,0,0,1.39-1.43,5,5,0,0,0,.45-.89,4.74,4.74,0,0,0,.27-1,5.72,5.72,0,0,0,.09-1,5.58,5.58,0,0,0-.12-1,5.12,5.12,0,0,0-6.08-3.9,5.55,5.55,0,0,0-.95.31,5.06,5.06,0,0,0-.88.49,5.15,5.15,0,0,0-.76.64,6.73,6.73,0,0,0-.62.79,4.73,4.73,0,0,0-.45.9,4.57,4.57,0,0,0-.27,1,4.66,4.66,0,0,0-.08.76,5.1,5.1,0,0,0-9.68,2,5.11,5.11,0,0,0-9.66,2.11,5.11,5.11,0,0,0-9.67,2.11,5.11,5.11,0,0,0-9.66,2.11A5.11,5.11,0,0,0,140.05,183.05Z" transform="translate(0 -54.95)"/><path class="cls-11" d="M140.05,183.05a5.09,5.09,0,0,0-4,4.84,3.86,3.86,0,0,0-.39-.65,4.23,4.23,0,0,0-.64-.76,5.2,5.2,0,0,0-.79-.63,4.64,4.64,0,0,0-.89-.45,4.57,4.57,0,0,0-1-.27,4.8,4.8,0,0,0-1-.09,6.51,6.51,0,0,0-1,.12,5,5,0,0,0-1.83.8,4.68,4.68,0,0,0-.76.64,5.82,5.82,0,0,0-.62.79,4.77,4.77,0,0,0-.46.9,6.2,6.2,0,0,0-.27,1,5.43,5.43,0,0,0-.07,1,4.69,4.69,0,0,0,.42,1.95,5.45,5.45,0,0,0,.49.88,4.61,4.61,0,0,0,.64.75,4.75,4.75,0,0,0,.79.63,4.64,4.64,0,0,0,.89.45,5.26,5.26,0,0,0,1,.27,6.34,6.34,0,0,0,.75.07,5.09,5.09,0,0,0,2,9.65,5.11,5.11,0,0,0,2.09,9.66,5.09,5.09,0,0,0,2.19,9.62,5.1,5.1,0,0,0-2,1.8,5.1,5.1,0,0,0-.72,1.86,4.73,4.73,0,0,0-.08,1,4.81,4.81,0,0,0,.42,2,5,5,0,0,0,.49.87,4.74,4.74,0,0,0,.65.76,5.31,5.31,0,0,0,.78.64,5.15,5.15,0,0,0,3.85.68,4.79,4.79,0,0,0,1-.31,5.66,5.66,0,0,0,.87-.48,5.31,5.31,0,0,0,.76-.65,4.58,4.58,0,0,0,.62-.79,4.77,4.77,0,0,0,.46-.9,5.16,5.16,0,0,0,.27-1,4.9,4.9,0,0,0,.08-.76,5.1,5.1,0,0,0,9.67-2.07,5.1,5.1,0,0,0,9.66-2.11,5.11,5.11,0,0,0,9.67-2.11,5.11,5.11,0,0,0,9.67-2.11,5.09,5.09,0,0,0,9.65-2.14,3.86,3.86,0,0,0,.39.65,4.23,4.23,0,0,0,.64.76,5.39,5.39,0,0,0,.79.64,5,5,0,0,0,.89.45,5.26,5.26,0,0,0,1,.27,4.82,4.82,0,0,0,1,.08,4.69,4.69,0,0,0,1-.11,5.75,5.75,0,0,0,1.83-.8,5.92,5.92,0,0,0,.76-.65,5.82,5.82,0,0,0,.62-.79,4.21,4.21,0,0,0,.45-.9,5.18,5.18,0,0,0,.28-.95,5.62,5.62,0,0,0,.08-1,5.5,5.5,0,0,0-.42-2,5.43,5.43,0,0,0-.5-.87,4.68,4.68,0,0,0-.64-.76,6.06,6.06,0,0,0-.79-.63,5,5,0,0,0-.89-.45,5.26,5.26,0,0,0-1-.27,6.17,6.17,0,0,0-.74-.07,5.09,5.09,0,0,0-2-9.65,5.11,5.11,0,0,0-2.1-9.65,5.1,5.1,0,0,0-2.18-9.63,6,6,0,0,0,.65-.37,5.45,5.45,0,0,0,1.39-1.43,5,5,0,0,0,.45-.89,4.74,4.74,0,0,0,.27-1,5.72,5.72,0,0,0,.09-1,5.58,5.58,0,0,0-.12-1,5.12,5.12,0,0,0-6.08-3.9,5.55,5.55,0,0,0-.95.31,5.06,5.06,0,0,0-.88.49,5.15,5.15,0,0,0-.76.64,6.73,6.73,0,0,0-.62.79,4.73,4.73,0,0,0-.45.9,4.57,4.57,0,0,0-.27,1,4.66,4.66,0,0,0-.08.76,5.1,5.1,0,0,0-9.68,2,5.11,5.11,0,0,0-9.66,2.11,5.11,5.11,0,0,0-9.67,2.11,5.11,5.11,0,0,0-9.66,2.11A5.11,5.11,0,0,0,140.05,183.05Z" transform="translate(0 -54.95)"/><rect class="cls-12" x="137.04" y="185.41" width="55.27" height="35.41" rx="1.86" transform="translate(-39.5 -15.19) rotate(-12.3)"/><path class="cls-7" d="M182,156.57c1.75,4.4,3.27,8.77,4.66,13.25s2.66,9,3.68,13.62c.13.58.25,1.17.37,1.75l.17.87.09.44.07.42a4.34,4.34,0,0,1,.07.55,5.81,5.81,0,0,1-.51,2.87,5.62,5.62,0,0,1-2.05,2.32,6.44,6.44,0,0,1-1.94.81,9.16,9.16,0,0,1-1.48.22,17.49,17.49,0,0,1-4.36-.34,37.66,37.66,0,0,1-3.66-.9A77.89,77.89,0,0,1,163.88,187l1.6-4.2c4.39,1,8.88,2.07,13.16,2.74,1.07.17,2.12.29,3.12.36a10,10,0,0,0,2.52-.05c.25,0,.38-.21-.14.06a2.46,2.46,0,0,0-.93,1.05,2.69,2.69,0,0,0-.26,1.18c0,.08,0,.08,0,.12s0,.11,0,0l-.11-.4-.22-.81c-.15-.53-.28-1.07-.45-1.6-1.23-4.29-2.63-8.58-4.09-12.87s-3-8.57-4.56-12.77Z" transform="translate(0 -54.95)"/><path class="cls-8" d="M180.77,148.35c3.53,1.32,7.1,14,7.1,14l-14.61,9.13s-4.64-12.24-2.84-16.8C172.3,149.92,176.73,146.84,180.77,148.35Z" transform="translate(0 -54.95)"/><path class="cls-9" d="M180.77,148.35c3.53,1.32,7.1,14,7.1,14l-14.61,9.13s-4.64-12.24-2.84-16.8C172.3,149.92,176.73,146.84,180.77,148.35Z" transform="translate(0 -54.95)"/><path class="cls-8" d="M218,337.9l-.1,0a1.23,1.23,0,0,1-1.13-.3.69.69,0,0,1-.28-.67c.15-1.12,3.05-2.49,3.38-2.64a.2.2,0,0,1,.23,0,.2.2,0,0,1,.06.22C219.74,335.67,219,337.51,218,337.9Zm1.59-3c-1.15.57-2.61,1.5-2.69,2.09a.31.31,0,0,0,.14.29.79.79,0,0,0,.74.21C218.32,337.37,219,336.41,219.54,334.94Z" transform="translate(0 -54.95)"/><path class="cls-8" d="M219.71,334.84c-1,.39-3.11.61-3.78,0a.74.74,0,0,1-.12-.91,1.07,1.07,0,0,1,.71-.6c1.24-.37,3.41,1,3.5,1a.21.21,0,0,1,.1.19.21.21,0,0,1-.11.18Zm-3.13-1.11a.69.69,0,0,0-.39.36c-.11.25,0,.36,0,.43.45.42,2.21.33,3.23,0-.75-.41-2.07-1-2.81-.79Z" transform="translate(0 -54.95)"/><path class="cls-8" d="M136.4,404.8a3.33,3.33,0,0,1-2.22.05,1.18,1.18,0,0,1-.65-.88.71.71,0,0,1,.2-.64c.88-.86,4.78-.08,5.22,0a.19.19,0,0,1,.16.17.2.2,0,0,1-.11.22A15.24,15.24,0,0,1,136.4,404.8Zm-2-1.34a.76.76,0,0,0-.36.18.24.24,0,0,0-.07.25.79.79,0,0,0,.41.59c.65.32,2.08,0,3.89-.84A11.45,11.45,0,0,0,134.38,403.46Z" transform="translate(0 -54.95)"/><path class="cls-8" d="M139,403.75h-.08c-1.15-.18-3.69-1.45-3.8-2.47,0-.24.06-.57.6-.78a1.52,1.52,0,0,1,1.22,0c1.33.6,2.17,2.84,2.2,2.94a.18.18,0,0,1,0,.2A.19.19,0,0,1,139,403.75Zm-3-2.89-.12,0c-.36.14-.35.3-.34.35.07.6,1.84,1.67,3.06,2a4.9,4.9,0,0,0-1.83-2.33A1.09,1.09,0,0,0,136,400.86Z" transform="translate(0 -54.95)"/><path class="cls-8" d="M168.21,147.45a121.12,121.12,0,0,0-16.56,1.5c-2,.36-4.07.8-6,1.25h0c-1.49,1.59-4.08,9.63-1.17,15.07,1.92-3.22,5.15-6,7.3-6.32,2.36.64,4.69,4.21,5.26,7.36,3.86-.7,12.21-9.73,17-17l1.22-1.88C173,147.36,170.64,147.35,168.21,147.45Z" transform="translate(0 -54.95)"/><path class="cls-7" d="M167.7,129.63c-1.37,5.33-3,15,.5,18.18,0,0-3.3,5.37-11.68,6.34-9.22,1.08-4.87-4.84-4.87-4.84,6-1.93,6.14-6.25,5.36-10.23Z" transform="translate(0 -54.95)"/><path class="cls-7" d="M151.65,149.31s-3.69,3.89-.18,11c7.42-3.45,14.53-7.54,16.73-12.48Z" transform="translate(0 -54.95)"/><path class="cls-9" d="M163.34,133.48l-6.33,5.6a15.27,15.27,0,0,1,.33,2.84c2.29-.53,6.07-2.81,6.46-5.16A8.3,8.3,0,0,0,163.34,133.48Z" transform="translate(0 -54.95)"/><path class="cls-7" d="M174.72,123.19c-3.14,8.23-4.3,11.78-9.88,14.76-8.41,4.49-17.83-1.17-17.21-10.17.56-8.11,5.6-20.21,14.86-21A12,12,0,0,1,174.72,123.19Z" transform="translate(0 -54.95)"/><path class="cls-6" d="M156,106.76c3.76-.87,5,3.42-1.58,4.93S152.94,107.48,156,106.76Z" transform="translate(0 -54.95)"/><path class="cls-6" d="M159.93,104.49c-5.37,2-3,8.17,3.09,9.93s4.06,12.09,9.52,14.36,8.35-15.1,3.64-20S163.54,103.13,159.93,104.49Z" transform="translate(0 -54.95)"/><path class="cls-13" d="M154.91,120.79a19.13,19.13,0,0,1-3.8,3.6,3.1,3.1,0,0,0,2.29,1.22Z" transform="translate(0 -54.95)"/><path class="cls-6" d="M156.29,129.45a7.22,7.22,0,0,1-1-.24.21.21,0,0,1-.14-.26.23.23,0,0,1,.27-.14,5.67,5.67,0,0,0,5.07-.73.21.21,0,0,1,.3,0,.22.22,0,0,1,0,.3A5.88,5.88,0,0,1,156.29,129.45Z" transform="translate(0 -54.95)"/><path class="cls-7" d="M174.92,130.69a6.48,6.48,0,0,1-4.28,2.43c-2.24.26-3-1.83-2.1-3.76.83-1.74,3-4,5.1-3.34A2.89,2.89,0,0,1,174.92,130.69Z" transform="translate(0 -54.95)"/><path class="cls-6" d="M165.36,121a.43.43,0,0,1-.31-.38c-.12-1.95-2.25-3.28-2.27-3.29a.42.42,0,1,1,.44-.71c.11.06,2.52,1.57,2.66,3.94a.41.41,0,0,1-.39.45Z" transform="translate(0 -54.95)"/><path class="cls-6" d="M160.76,122c-.23.62-.75,1-1.16.86s-.56-.78-.33-1.41.75-1,1.16-.86S161,121.36,160.76,122Z" transform="translate(0 -54.95)"/><path class="cls-6" d="M153,119.26c-.23.62-.75,1-1.16.86s-.56-.78-.32-1.41.75-1,1.16-.86S153.24,118.63,153,119.26Z" transform="translate(0 -54.95)"/><path class="cls-6" d="M152.85,118l-1.34-1S151.85,118.42,152.85,118Z" transform="translate(0 -54.95)"/><path class="cls-6" d="M160.6,120.68l-1.34-1S159.6,121.15,160.6,120.68Z" transform="translate(0 -54.95)"/><path class="cls-6" d="M151.23,114a.41.41,0,0,1-.36-.21.42.42,0,0,1,.16-.57,4.16,4.16,0,0,1,3.83-.26.42.42,0,0,1-.38.75h0a3.31,3.31,0,0,0-3,.24A.34.34,0,0,1,151.23,114Z" transform="translate(0 -54.95)"/><path class="cls-7" d="M166.65,183.22l-6.05-7.45-1.69,8.87s4.39,3.63,7.8,2.24Z" transform="translate(0 -54.95)"/><polygon class="cls-7" points="155.23 119.59 152.31 126.65 158.91 129.68 160.6 120.82 155.23 119.59"/></g><g id="Envelope"><rect class="cls-8" x="409.62" y="239.36" width="0.95" height="12.86" transform="translate(-21.64 -14.58) rotate(-5.49)"/><rect class="cls-8" x="410.92" y="256.65" width="0.95" height="5.19" transform="translate(-22.91 -14.41) rotate(-5.49)"/><rect class="cls-8" x="176.14" y="216.98" width="234.5" height="139.6" transform="translate(612.87 489.23) rotate(174.51)"/><rect class="cls-14" x="176.14" y="216.98" width="234.5" height="139.6" transform="translate(612.87 489.23) rotate(174.51)"/><polygon class="cls-15" points="294 238.14 170 173.56 403.42 151.13 294 238.14"/><path class="cls-8" d="M265.75,152.38,170,228.52l233.42-22.44-108.5-56.5A26.9,26.9,0,0,0,265.75,152.38Z" transform="translate(0 -54.95)"/><path class="cls-16" d="M394.75,206.92,291.66,153.23a20.28,20.28,0,0,0-22,2.11l-91,72.34Z" transform="translate(0 -54.95)"/><polygon class="cls-12" points="351.64 150.26 383.23 158.69 383.99 166.58 294 238.14 192.02 185.03 190.5 169.27 351.64 150.26"/><polyline class="cls-17" points="351.64 150.26 357.61 166.8 383.23 158.69"/><polyline class="cls-3" points="351.64 150.26 354.71 163.9 383.23 158.69"/><path class="cls-8" d="M312.65,278.24l104.13,66.81L183.36,367.48l89.49-85.42A32.35,32.35,0,0,1,312.65,278.24Z" transform="translate(0 -54.95)"/></g></svg>